<svg width="32" height="32" viewBox="0 0 32 32" fill="none" xmlns="http://www.w3.org/2000/svg">
<path opacity="0.4" d="M21.3346 2.66669H10.668C5.33464 2.66669 2.66797 5.33335 2.66797 10.6667V28C2.66797 28.7334 3.26797 29.3334 4.0013 29.3334H21.3346C26.668 29.3334 29.3346 26.6667 29.3346 21.3334V10.6667C29.3346 5.33335 26.668 2.66669 21.3346 2.66669Z" fill="#B8B8B8"/>
<path d="M20.6654 15H16.9987V11.3333C16.9987 10.7866 16.5454 10.3333 15.9987 10.3333C15.452 10.3333 14.9987 10.7866 14.9987 11.3333V15H11.332C10.7854 15 10.332 15.4533 10.332 16C10.332 16.5466 10.7854 17 11.332 17H14.9987V20.6666C14.9987 21.2133 15.452 21.6666 15.9987 21.6666C16.5454 21.6666 16.9987 21.2133 16.9987 20.6666V17H20.6654C21.212 17 21.6654 16.5466 21.6654 16C21.6654 15.4533 21.212 15 20.6654 15Z" fill="#B8B8B8"/>
</svg>
