<svg width="36" height="36" viewBox="0 0 36 36" fill="none" xmlns="http://www.w3.org/2000/svg">
<path opacity="0.4" d="M24.285 3H11.715C6.255 3 3 6.255 3 11.715V24.27C3 29.745 6.255 33 11.715 33H24.27C29.73 33 32.985 29.745 32.985 24.285V11.715C33 6.255 29.745 3 24.285 3Z" fill="#62AD9E"/>
<path d="M24 16.875H19.125V12C19.125 11.385 18.615 10.875 18 10.875C17.385 10.875 16.875 11.385 16.875 12V16.875H12C11.385 16.875 10.875 17.385 10.875 18C10.875 18.615 11.385 19.125 12 19.125H16.875V24C16.875 24.615 17.385 25.125 18 25.125C18.615 25.125 19.125 24.615 19.125 24V19.125H24C24.615 19.125 25.125 18.615 25.125 18C25.125 17.385 24.615 16.875 24 16.875Z" fill="#62AD9E"/>
</svg>
