<svg xmlns="http://www.w3.org/2000/svg" width="86" height="60">
  <path d="M0 0h86v60H0z" fill="#02028B"/>
  <path d="M0 0h49l-1 4c-3.062 1.75-3.062 1.75-6 3l7 1v9l-6 1 6 3v4c-5.27.454-8.84-1.048-13.375-3.5l-1.941-1.012A465 465 0 0 1 29 18v7h-9v-7l-2.598 1.531-3.465 1.969-3.41 1.969C7 25 7 25 0 25z" fill="#FC0D0F"/>
  <path d="M0 0h22v10H0z" fill="#EFE6EE"/>
  <path d="M27 0h22l-1 4c-3.062 1.75-3.062 1.75-6 3l7 1v2H27z" fill="#E5D6E2"/>
  <path d="M0 15h22v10h-2v-7l-2.598 1.531-3.465 1.969-3.41 1.969C6.711 25.126 4.113 25.293 0 25z" fill="#FDFBFC"/>
  <path d="M27 15h22v2l-6 1 6 3v4c-5.27.454-8.84-1.048-13.375-3.5l-1.941-1.012A465 465 0 0 1 29 18v7h-2z" fill="#F4E3E9"/>
  <path d="m25 37 3 3 3-1-2 5 3 1-4 1 1 5-4-2-3 2v-5l-4-1 3-1-2-5 5 1z" fill="#E8E8F4"/>
  <path d="M6 0h15v7c-3.85-.604-6.861-1.768-10.312-3.562-.884-.456-1.767-.91-2.676-1.38L6 1z" fill="#141493"/>
  <path d="m0 0 14 7c-3.15 1.05-5.388 1.101-8.687 1.063L2.3 8.034 0 8z" fill="#F24F55"/>
  <path d="m21 17 1 8h-2v-7l-2.598 1.531-3.465 1.969-3.41 1.969C6.711 25.126 4.113 25.293 0 25c2.591-2.591 5.586-4.036 8.813-5.687l1.869-1.01C14.515 16.343 16.87 15.576 21 17" fill="#D06D85"/>
  <path d="M29 0h14c-2.81 2.107-5.058 3.666-8.125 5.188l-2.07 1.042C31 7 31 7 29 7z" fill="#06078C"/>
  <path d="M49 0c-2.863 2.26-5.749 4.037-9 5.688-.846.436-1.691.873-2.562 1.324C35 8 35 8 31 8V6a452 452 0 0 1 5.625-3l3.164-1.687C43.141-.058 45.42-.258 49 0" fill="#F06269"/>
  <path d="m44.25 15.875 2.703.055L49 16v1l-6 1 6 3v3c-4.972-1.492-9.418-3.605-14-6 3.212-1.906 5.539-2.223 9.25-2.125" fill="#CC5973"/>
  <path d="M22 9v1H0V8c14.665-1.862 14.665-1.862 22 1" fill="#E4D3E0"/>
  <path d="M0 16h10v2L0 22z" fill="#2E2F9E"/>
  <path d="M49 1c-1 3-1 3-3.145 4.422L43.188 6.75l-2.645 1.36c-2.742.96-3.874.91-6.543-.11q3.184-1.757 6.375-3.5l1.828-1.012C46.773 1 46.773 1 49 1" fill="#F7F1F6"/>
  <path d="M10 19c-2.66 3.442-5.903 3.995-10 5 1-3 1-3 3.875-4.75C7 18 7 18 10 19" fill="#F3E0E6"/>
  <path d="m0 3 9 4v1H0z" fill="#06088C"/>
  <path d="M21 0h1v9c-3.716.2-4.772.152-8-2V5l7 2z" fill="#F2F1F8"/>
  <path d="m67 45 3 1-1 5-3 1v-2l-2-1 1-2h2z" fill="#CFCFE9"/>
  <path d="m9 20 2 1c-1.562 2-1.562 2-4 4-3.75.25-3.75.25-7 0 2.678-2.678 5.48-3.68 9-5" fill="#D74356"/>
  <path d="m56 24 3 1 1 3h-2l-1 2h-2l-1-5z" fill="#D9D9EE"/>
  <path d="m79 20 3 1-1 5h-3l-1-5z" fill="#D1D1EA"/>
  <path d="m67 9 3 1-1 5h-3l-1-5z" fill="#D9D9ED"/>
  <path d="M41 21c5.75 1.75 5.75 1.75 8 4-5.538.37-5.538.37-7.875-1.5L40 22z" fill="#D6C5DB"/>
  <path d="m35 18 6 2-1 3-7-3z" fill="#E5D6E4"/>
  <path d="M49 0c-2.622 2.154-4.644 3.4-8 4V1c2.709-1.354 5.01-1.065 8-1" fill="#DE4758"/>
</svg>
