<svg width="73" height="72" viewBox="0 0 73 72" fill="none" xmlns="http://www.w3.org/2000/svg">
<path opacity="0.4" d="M49.237 6H24.097C13.177 6 6.66699 12.51 6.66699 23.43V48.54C6.66699 59.49 13.177 66 24.097 66H49.207C60.127 66 66.637 59.49 66.637 48.57V23.43C66.667 12.51 60.157 6 49.237 6Z" fill="#79A8D7"/>
<path d="M43.4475 36L38.9175 34.41V24.24H39.9975C42.4275 24.24 44.4075 26.37 44.4075 28.98C44.4075 30.21 45.4275 31.23 46.6575 31.23C47.8875 31.23 48.9075 30.21 48.9075 28.98C48.9075 23.88 44.9175 19.74 39.9975 19.74H38.9175V18C38.9175 16.77 37.8975 15.75 36.6675 15.75C35.4375 15.75 34.4175 16.77 34.4175 18V19.74H32.4675C28.0275 19.74 24.3975 23.49 24.3975 28.08C24.3975 33.45 27.5175 35.16 29.8875 36L34.4175 37.59V47.73H33.3375C30.9075 47.73 28.9275 45.6 28.9275 42.99C28.9275 41.76 27.9075 40.74 26.6775 40.74C25.4475 40.74 24.4275 41.76 24.4275 42.99C24.4275 48.09 28.4175 52.23 33.3375 52.23H34.4175V54C34.4175 55.23 35.4375 56.25 36.6675 56.25C37.8975 56.25 38.9175 55.23 38.9175 54V52.26H40.8675C45.3075 52.26 48.9375 48.51 48.9375 43.92C48.9075 38.52 45.7875 36.81 43.4475 36ZM31.3875 31.77C29.8575 31.23 28.9275 30.72 28.9275 28.11C28.9275 25.98 30.5175 24.27 32.4975 24.27H34.4475V32.85L31.3875 31.77ZM40.8675 47.76H38.9175V39.18L41.9475 40.23C43.4775 40.77 44.4075 41.28 44.4075 43.89C44.4075 46.02 42.8175 47.76 40.8675 47.76Z" fill="#79A8D7"/>
</svg>
