<svg width="24" height="24" viewBox="0 0 24 24" fill="none" xmlns="http://www.w3.org/2000/svg">
<path opacity="0.4" d="M16.19 2H7.81C4.17 2 2 4.17 2 7.81V16.18C2 19.83 4.17 22 7.81 22H16.18C19.82 22 21.99 19.83 21.99 16.19V7.81C22 4.17 19.83 2 16.19 2Z" fill="#FA6666"/>
<path d="M13.06 12L15.36 9.69998C15.65 9.40998 15.65 8.92999 15.36 8.63999C15.07 8.34999 14.59 8.34999 14.3 8.63999L12 10.94L9.7 8.63999C9.41 8.34999 8.93 8.34999 8.64 8.63999C8.35 8.92999 8.35 9.40998 8.64 9.69998L10.94 12L8.64 14.3C8.35 14.59 8.35 15.07 8.64 15.36C8.79 15.51 8.98 15.58 9.17 15.58C9.36 15.58 9.55 15.51 9.7 15.36L12 13.06L14.3 15.36C14.45 15.51 14.64 15.58 14.83 15.58C15.02 15.58 15.21 15.51 15.36 15.36C15.65 15.07 15.65 14.59 15.36 14.3L13.06 12Z" fill="#FA6666"/>
</svg>
