<svg xmlns="http://www.w3.org/2000/svg" width="140" height="140" viewBox="0 0 140 140">
  <path d="M112 13c13.212 10.427 23.939 24.555 27.566 41.273 2.482 21.328.188 41.014-12.941 58.54A168 168 0 0 1 123 117l-1.984 2.266C110.552 130.493 95 139.188 79.42 140.16c-22.642.35-40.002-2.502-57.42-18.16l-1.852-1.57C9.134 110.42.855 94.315-.177 79.45c-.51-22.475 2.95-41.575 18.896-58.37C26.02 13.764 34.433 7.925 44 4l2.895-1.191C68.875-4.82 93.488-.674 112 13" fill="#0865FF"/>
  <path d="m86.5 25.75 2.473-.023 2.433.007 2.166.007C96 26 96 26 103 28v19c-7.687.313-7.687.313-10.08.388-4.37.227-7.406.763-10.92 3.612-2.594 3.469-2.435 7.573-2.625 11.75L79 70h22c-.789 7.1-1.789 13.975-3 21H79v49c-21 0-21 0-26-1V91H39V70h14l-.14-3.77c-.309-11.74.119-22.083 7.663-31.734 7.198-7.293 16.115-8.84 25.977-8.746" fill="#FAFCFF"/>
</svg>
