<svg width="40" height="40" viewBox="0 0 40 40" fill="none" xmlns="http://www.w3.org/2000/svg">
<rect width="40" height="40" rx="20" fill="#1D405C"/>
<path fill-rule="evenodd" clip-rule="evenodd" d="M32.3403 20.2953C32.3403 19.3735 32.2576 18.4871 32.104 17.6362H19.8604V22.6649H26.8567C26.5553 24.2899 25.6394 25.6667 24.2626 26.5885V29.8503H28.464C30.9222 27.5871 32.3403 24.2544 32.3403 20.2953Z" fill="white"/>
<path fill-rule="evenodd" clip-rule="evenodd" d="M19.8604 33.0002C23.3704 33.0002 26.3132 31.8361 28.4641 29.8507L24.2627 26.5889C23.0986 27.3688 21.6095 27.8298 19.8604 27.8298C16.4745 27.8298 13.6086 25.5429 12.5863 22.4702H8.24316V25.8384C10.3823 30.087 14.7786 33.0002 19.8604 33.0002Z" fill="white"/>
<path fill-rule="evenodd" clip-rule="evenodd" d="M12.5863 22.4698C12.3263 21.6898 12.1785 20.8566 12.1785 19.9998C12.1785 19.143 12.3263 18.3098 12.5863 17.5298V14.1616H8.24308C7.36262 15.9166 6.86035 17.9021 6.86035 19.9998C6.86035 22.0975 7.36262 24.083 8.24308 25.838L12.5863 22.4698Z" fill="white"/>
<path fill-rule="evenodd" clip-rule="evenodd" d="M19.8604 12.1705C21.7691 12.1705 23.4827 12.8264 24.83 14.1145L28.5586 10.3859C26.3073 8.28818 23.3645 7 19.8604 7C14.7786 7 10.3823 9.91318 8.24316 14.1618L12.5863 17.53C13.6086 14.4573 16.4745 12.1705 19.8604 12.1705Z" fill="white"/>
</svg>
