<svg width="72" height="72" viewBox="0 0 72 72" fill="none" xmlns="http://www.w3.org/2000/svg">
<path opacity="0.4" d="M35.9102 66C52.4787 66 65.9102 52.5685 65.9102 36C65.9102 19.4315 52.4787 6 35.9102 6C19.3416 6 5.91016 19.4315 5.91016 36C5.91016 52.5685 19.3416 66 35.9102 66Z" fill="#FFBA35"/>
<path d="M36.0001 57.75C29.5501 57.75 23.4901 54.6 19.8001 49.29C19.0801 48.27 19.3501 46.86 20.3701 46.17C21.3901 45.45 22.8001 45.72 23.4901 46.74C26.3401 50.82 31.0201 53.28 36.0001 53.28C40.9801 53.28 45.6601 50.85 48.5101 46.74C49.2301 45.72 50.6101 45.48 51.6301 46.17C52.6501 46.89 52.8901 48.27 52.2001 49.29C48.5101 54.6 42.4501 57.75 36.0001 57.75Z" fill="#FFBA35"/>
</svg>
