<svg width="20" height="20" viewBox="0 0 20 20" fill="none" xmlns="http://www.w3.org/2000/svg">
<path opacity="0.4" d="M9.99935 18.3332C14.6017 18.3332 18.3327 14.6022 18.3327 9.99984C18.3327 5.39746 14.6017 1.6665 9.99935 1.6665C5.39698 1.6665 1.66602 5.39746 1.66602 9.99984C1.66602 14.6022 5.39698 18.3332 9.99935 18.3332Z" fill="#FF9277"/>
<path d="M10.275 14.1669C10.125 14.2169 9.86666 14.2169 9.71666 14.1669C8.41666 13.7252 5.5 11.8669 5.5 8.71685C5.5 7.32519 6.61667 6.2002 8 6.2002C8.81667 6.2002 9.54166 6.59185 9.99999 7.20852C10.45 6.60019 11.1833 6.2002 12 6.2002C13.3833 6.2002 14.5 7.32519 14.5 8.71685C14.5 11.8669 11.5833 13.7252 10.275 14.1669Z" fill="#FF9277"/>
</svg>
