<svg width="154" height="52" viewBox="0 0 154 52" fill="none" xmlns="http://www.w3.org/2000/svg">
<g filter="url(#filter0_d_43_919)">
<rect width="150" height="48" rx="8" fill="#62AD9E" shape-rendering="crispEdges"/>
<rect x="1" y="1" width="148" height="46" rx="7" stroke="#1D405C" stroke-width="2" shape-rendering="crispEdges"/>
<path d="M31.298 19.27V29H29.702V22.336L26.734 29H25.628L22.646 22.336V29H21.05V19.27H22.772L26.188 26.9L29.59 19.27H31.298ZM40.3817 21.286V29H38.7857V28.09C38.5337 28.4073 38.2024 28.6593 37.7917 28.846C37.3904 29.0233 36.961 29.112 36.5037 29.112C35.897 29.112 35.351 28.986 34.8657 28.734C34.3897 28.482 34.0117 28.1087 33.7317 27.614C33.461 27.1193 33.3257 26.522 33.3257 25.822V21.286H34.9077V25.584C34.9077 26.2747 35.0804 26.8067 35.4257 27.18C35.771 27.544 36.2424 27.726 36.8397 27.726C37.437 27.726 37.9084 27.544 38.2537 27.18C38.6084 26.8067 38.7857 26.2747 38.7857 25.584V21.286H40.3817ZM44.0835 18.64V29H42.4875V18.64H44.0835ZM45.6469 25.108C45.6469 24.3333 45.8056 23.6473 46.1229 23.05C46.4496 22.4527 46.8882 21.9907 47.4389 21.664C47.9989 21.328 48.6149 21.16 49.2869 21.16C49.8936 21.16 50.4209 21.2813 50.8689 21.524C51.3262 21.7573 51.6902 22.0513 51.9609 22.406V21.286H53.5709V29H51.9609V27.852C51.6902 28.216 51.3216 28.5193 50.8549 28.762C50.3882 29.0047 49.8562 29.126 49.2589 29.126C48.5962 29.126 47.9896 28.958 47.4389 28.622C46.8882 28.2767 46.4496 27.8007 46.1229 27.194C45.8056 26.578 45.6469 25.8827 45.6469 25.108ZM51.9609 25.136C51.9609 24.604 51.8489 24.142 51.6249 23.75C51.4102 23.358 51.1256 23.0593 50.7709 22.854C50.4162 22.6487 50.0336 22.546 49.6229 22.546C49.2122 22.546 48.8296 22.6487 48.4749 22.854C48.1202 23.05 47.8309 23.344 47.6069 23.736C47.3922 24.1187 47.2849 24.576 47.2849 25.108C47.2849 25.64 47.3922 26.1067 47.6069 26.508C47.8309 26.9093 48.1202 27.2173 48.4749 27.432C48.8389 27.6373 49.2216 27.74 49.6229 27.74C50.0336 27.74 50.4162 27.6373 50.7709 27.432C51.1256 27.2267 51.4102 26.928 51.6249 26.536C51.8489 26.1347 51.9609 25.668 51.9609 25.136ZM56.4792 20.264C56.1899 20.264 55.9472 20.166 55.7512 19.97C55.5552 19.774 55.4572 19.5313 55.4572 19.242C55.4572 18.9527 55.5552 18.71 55.7512 18.514C55.9472 18.318 56.1899 18.22 56.4792 18.22C56.7592 18.22 56.9972 18.318 57.1932 18.514C57.3892 18.71 57.4872 18.9527 57.4872 19.242C57.4872 19.5313 57.3892 19.774 57.1932 19.97C56.9972 20.166 56.7592 20.264 56.4792 20.264ZM57.2632 21.286V29H55.6672V21.286H57.2632ZM66.2013 29.098C65.548 29.098 64.96 28.986 64.4373 28.762C63.9146 28.5287 63.504 28.202 63.2053 27.782C62.9066 27.362 62.7573 26.872 62.7573 26.312H64.4653C64.5026 26.732 64.666 27.0773 64.9553 27.348C65.254 27.6187 65.6693 27.754 66.2013 27.754C66.752 27.754 67.1813 27.6233 67.4893 27.362C67.7973 27.0913 67.9513 26.746 67.9513 26.326C67.9513 25.9993 67.8533 25.7333 67.6573 25.528C67.4706 25.3227 67.2326 25.164 66.9433 25.052C66.6633 24.94 66.2713 24.8187 65.7673 24.688C65.1326 24.52 64.6146 24.352 64.2133 24.184C63.8213 24.0067 63.4853 23.736 63.2053 23.372C62.9253 23.008 62.7853 22.5227 62.7853 21.916C62.7853 21.356 62.9253 20.866 63.2053 20.446C63.4853 20.026 63.8773 19.704 64.3813 19.48C64.8853 19.256 65.4686 19.144 66.1313 19.144C67.074 19.144 67.844 19.382 68.4413 19.858C69.048 20.3247 69.384 20.9687 69.4493 21.79H67.6853C67.6573 21.4353 67.4893 21.132 67.1813 20.88C66.8733 20.628 66.4673 20.502 65.9633 20.502C65.506 20.502 65.1326 20.6187 64.8433 20.852C64.554 21.0853 64.4093 21.4213 64.4093 21.86C64.4093 22.1587 64.498 22.406 64.6753 22.602C64.862 22.7887 65.0953 22.938 65.3753 23.05C65.6553 23.162 66.038 23.2833 66.5233 23.414C67.1673 23.5913 67.69 23.7687 68.0913 23.946C68.502 24.1233 68.8473 24.3987 69.1273 24.772C69.4166 25.136 69.5613 25.626 69.5613 26.242C69.5613 26.7367 69.426 27.2033 69.1553 27.642C68.894 28.0807 68.5066 28.4353 67.9933 28.706C67.4893 28.9673 66.892 29.098 66.2013 29.098ZM78.5145 24.954C78.5145 25.2433 78.4959 25.5047 78.4585 25.738H72.5645C72.6112 26.354 72.8399 26.8487 73.2505 27.222C73.6612 27.5953 74.1652 27.782 74.7625 27.782C75.6212 27.782 76.2279 27.4227 76.5825 26.704H78.3045C78.0712 27.4133 77.6465 27.9967 77.0305 28.454C76.4239 28.902 75.6679 29.126 74.7625 29.126C74.0252 29.126 73.3625 28.9627 72.7745 28.636C72.1959 28.3 71.7385 27.8333 71.4025 27.236C71.0759 26.6293 70.9125 25.9293 70.9125 25.136C70.9125 24.3427 71.0712 23.6473 71.3885 23.05C71.7152 22.4433 72.1679 21.9767 72.7465 21.65C73.3345 21.3233 74.0065 21.16 74.7625 21.16C75.4905 21.16 76.1392 21.3187 76.7085 21.636C77.2779 21.9533 77.7212 22.4013 78.0385 22.98C78.3559 23.5493 78.5145 24.2073 78.5145 24.954ZM76.8485 24.45C76.8392 23.862 76.6292 23.3907 76.2185 23.036C75.8079 22.6813 75.2992 22.504 74.6925 22.504C74.1419 22.504 73.6705 22.6813 73.2785 23.036C72.8865 23.3813 72.6532 23.8527 72.5785 24.45H76.8485ZM83.1372 25.15L86.6932 29H84.5372L81.6812 25.682V29H80.0852V18.64H81.6812V24.66L84.4812 21.286H86.6932L83.1372 25.15ZM87.3051 25.108C87.3051 24.3333 87.4638 23.6473 87.7811 23.05C88.1078 22.4527 88.5464 21.9907 89.0971 21.664C89.6571 21.328 90.2731 21.16 90.9451 21.16C91.5518 21.16 92.0791 21.2813 92.5271 21.524C92.9844 21.7573 93.3484 22.0513 93.6191 22.406V21.286H95.2291V29H93.6191V27.852C93.3484 28.216 92.9798 28.5193 92.5131 28.762C92.0464 29.0047 91.5144 29.126 90.9171 29.126C90.2544 29.126 89.6478 28.958 89.0971 28.622C88.5464 28.2767 88.1078 27.8007 87.7811 27.194C87.4638 26.578 87.3051 25.8827 87.3051 25.108ZM93.6191 25.136C93.6191 24.604 93.5071 24.142 93.2831 23.75C93.0684 23.358 92.7838 23.0593 92.4291 22.854C92.0744 22.6487 91.6918 22.546 91.2811 22.546C90.8704 22.546 90.4878 22.6487 90.1331 22.854C89.7784 23.05 89.4891 23.344 89.2651 23.736C89.0504 24.1187 88.9431 24.576 88.9431 25.108C88.9431 25.64 89.0504 26.1067 89.2651 26.508C89.4891 26.9093 89.7784 27.2173 90.1331 27.432C90.4971 27.6373 90.8798 27.74 91.2811 27.74C91.6918 27.74 92.0744 27.6373 92.4291 27.432C92.7838 27.2267 93.0684 26.928 93.2831 26.536C93.5071 26.1347 93.6191 25.668 93.6191 25.136ZM98.9214 22.406C99.1547 22.014 99.4627 21.7107 99.8454 21.496C100.237 21.272 100.699 21.16 101.231 21.16V22.812H100.825C100.2 22.812 99.7241 22.9707 99.3974 23.288C99.0801 23.6053 98.9214 24.156 98.9214 24.94V29H97.3254V21.286H98.9214V22.406ZM102.166 25.108C102.166 24.3333 102.325 23.6473 102.642 23.05C102.969 22.4527 103.408 21.9907 103.958 21.664C104.518 21.328 105.134 21.16 105.806 21.16C106.413 21.16 106.94 21.2813 107.388 21.524C107.846 21.7573 108.21 22.0513 108.48 22.406V21.286H110.09V29H108.48V27.852C108.21 28.216 107.841 28.5193 107.374 28.762C106.908 29.0047 106.376 29.126 105.778 29.126C105.116 29.126 104.509 28.958 103.958 28.622C103.408 28.2767 102.969 27.8007 102.642 27.194C102.325 26.578 102.166 25.8827 102.166 25.108ZM108.48 25.136C108.48 24.604 108.368 24.142 108.144 23.75C107.93 23.358 107.645 23.0593 107.29 22.854C106.936 22.6487 106.553 22.546 106.142 22.546C105.732 22.546 105.349 22.6487 104.994 22.854C104.64 23.05 104.35 23.344 104.126 23.736C103.912 24.1187 103.804 24.576 103.804 25.108C103.804 25.64 103.912 26.1067 104.126 26.508C104.35 26.9093 104.64 27.2173 104.994 27.432C105.358 27.6373 105.741 27.74 106.142 27.74C106.553 27.74 106.936 27.6373 107.29 27.432C107.645 27.2267 107.93 26.928 108.144 26.536C108.368 26.1347 108.48 25.668 108.48 25.136ZM116.079 21.16C116.685 21.16 117.227 21.286 117.703 21.538C118.188 21.79 118.566 22.1633 118.837 22.658C119.107 23.1527 119.243 23.75 119.243 24.45V29H117.661V24.688C117.661 23.9973 117.488 23.47 117.143 23.106C116.797 22.7327 116.326 22.546 115.729 22.546C115.131 22.546 114.655 22.7327 114.301 23.106C113.955 23.47 113.783 23.9973 113.783 24.688V29H112.187V21.286H113.783V22.168C114.044 21.8507 114.375 21.6033 114.777 21.426C115.187 21.2487 115.621 21.16 116.079 21.16ZM124.387 21.16C124.984 21.16 125.511 21.2813 125.969 21.524C126.435 21.7573 126.799 22.0513 127.061 22.406V21.286H128.671V29.126C128.671 29.8353 128.521 30.4653 128.223 31.016C127.924 31.576 127.49 32.0147 126.921 32.332C126.361 32.6493 125.689 32.808 124.905 32.808C123.859 32.808 122.991 32.5607 122.301 32.066C121.61 31.5807 121.218 30.918 121.125 30.078H122.707C122.828 30.4793 123.085 30.8013 123.477 31.044C123.878 31.296 124.354 31.422 124.905 31.422C125.549 31.422 126.067 31.226 126.459 30.834C126.86 30.442 127.061 29.8727 127.061 29.126V27.838C126.79 28.202 126.421 28.51 125.955 28.762C125.497 29.0047 124.975 29.126 124.387 29.126C123.715 29.126 123.099 28.958 122.539 28.622C121.988 28.2767 121.549 27.8007 121.223 27.194C120.905 26.578 120.747 25.8827 120.747 25.108C120.747 24.3333 120.905 23.6473 121.223 23.05C121.549 22.4527 121.988 21.9907 122.539 21.664C123.099 21.328 123.715 21.16 124.387 21.16ZM127.061 25.136C127.061 24.604 126.949 24.142 126.725 23.75C126.51 23.358 126.225 23.0593 125.871 22.854C125.516 22.6487 125.133 22.546 124.723 22.546C124.312 22.546 123.929 22.6487 123.575 22.854C123.22 23.05 122.931 23.344 122.707 23.736C122.492 24.1187 122.385 24.576 122.385 25.108C122.385 25.64 122.492 26.1067 122.707 26.508C122.931 26.9093 123.22 27.2173 123.575 27.432C123.939 27.6373 124.321 27.74 124.723 27.74C125.133 27.74 125.516 27.6373 125.871 27.432C126.225 27.2267 126.51 26.928 126.725 26.536C126.949 26.1347 127.061 25.668 127.061 25.136Z" fill="white"/>
</g>
<defs>
<filter id="filter0_d_43_919" x="0" y="0" width="154" height="52" filterUnits="userSpaceOnUse" color-interpolation-filters="sRGB">
<feFlood flood-opacity="0" result="BackgroundImageFix"/>
<feColorMatrix in="SourceAlpha" type="matrix" values="0 0 0 0 0 0 0 0 0 0 0 0 0 0 0 0 0 0 127 0" result="hardAlpha"/>
<feOffset dx="4" dy="4"/>
<feComposite in2="hardAlpha" operator="out"/>
<feColorMatrix type="matrix" values="0 0 0 0 0.113725 0 0 0 0 0.25098 0 0 0 0 0.360784 0 0 0 1 0"/>
<feBlend mode="normal" in2="BackgroundImageFix" result="effect1_dropShadow_43_919"/>
<feBlend mode="normal" in="SourceGraphic" in2="effect1_dropShadow_43_919" result="shape"/>
</filter>
</defs>
</svg>
