<svg xmlns="http://www.w3.org/2000/svg" width="60" height="41">
  <path d="M0 0h60v41H0z" fill="#FE9905"/>
  <path d="M0 27h60v14H0z" fill="#3C9040"/>
  <path d="M0 14h60v13H0z" fill="#F6F5F7"/>
  <path d="m35.293 14.805 2.14.008c2.251.011 4.503.037 6.755.062q2.29.016 4.583.027Q54.386 14.937 60 15v11q-6.754.075-13.507.11-2.297.016-4.595.04c-2.202.025-4.403.036-6.605.045l-2.074.032c-3.65 0-5.09-.141-8.219-2.227-.375-3.5-.375-3.5 0-7 3.594-2.396 6.149-2.258 10.293-2.195" fill="#F4F4F5"/>
  <path d="M31.063 15.188C34 16 34 16 36 19c-.324 3.322-.608 4.608-3 7-6.577-.577-6.577-.577-8-2-.25-3.437-.25-3.437 0-7 3-2 3-2 6.063-1.812" fill="#9A9ACD"/>
  <path d="m28 18 5 1-1 4-5-1z" fill="#6D6DB8"/>
</svg>
