<svg
    xmlns="http://www.w3.org/2000/svg"
    width="283"
    height="250"
    fill="none"
  >
    <path
      fill="#62AD9E"
      fillOpacity="0.1"
      d="M174.581 87.105c0 48.08-38.947 87.026-87.026 87.026-48.08 0-87.027-38.946-87.027-87.026S39.475.08 87.554.08c48.08 0 87.027 38.947 87.027 87.026Z"
    />
    <path
      fill="#79A8D7"
      fillOpacity="0.1"
      d="M282.123 160.871c0 48.8-39.52 88.32-88.16 88.32-48.8 0-88.32-39.52-88.32-88.32 0-48.64 39.52-88.16 88.32-88.16 48.64 0 88.16 39.52 88.16 88.16Z"
    />
    <path
      fill="#F4F2F1"
      d="M189.095 189.456H62.791a3.377 3.377 0 0 1-3.373-3.373c0-1.874 1.5-3.402 3.373-3.402h126.304c1.874 0 3.373 1.528 3.373 3.402a3.377 3.377 0 0 1-3.373 3.373Z"
    />
    <path
      fill="#F4F2F1"
      d="m39.727 41.817 1.038.346a.51.51 0 0 1 0 .98l-1.038.346a4.383 4.383 0 0 0-2.796 2.768l-.317 1.067a.53.53 0 0 1-1.01 0l-.346-1.067a4.34 4.34 0 0 0-2.767-2.768l-1.067-.346c-.461-.144-.461-.836 0-.98l1.067-.346a4.34 4.34 0 0 0 2.767-2.767l.346-1.067a.53.53 0 0 1 1.01 0l.317 1.067a4.383 4.383 0 0 0 2.796 2.767ZM258.691 116.084l.606.201a.3.3 0 0 1 0 .577l-.606.202c-.749.23-1.355.836-1.614 1.614l-.202.606c-.086.259-.461.259-.548 0l-.201-.606c-.26-.778-.865-1.384-1.615-1.614l-.605-.202a.3.3 0 0 1 0-.577l.605-.201a2.57 2.57 0 0 0 1.615-1.615l.201-.605a.282.282 0 0 1 .548 0l.202.605a2.57 2.57 0 0 0 1.614 1.615ZM17.557 156.618l.606.201c.26.087.26.491 0 .577l-.606.202a2.39 2.39 0 0 0-1.614 1.614l-.202.606a.3.3 0 0 1-.577 0l-.201-.606a2.39 2.39 0 0 0-1.615-1.614l-.605-.202a.3.3 0 0 1 0-.577l.605-.201a2.389 2.389 0 0 0 1.614-1.615l.202-.605c.087-.26.49-.26.577 0l.202.605c.23.779.836 1.384 1.614 1.615Z"
    />
    <path
      fill="#1D405C"
      d="M199.388 151.399H52.5c-2.595 0-4.728-2.133-4.728-4.757V51.157c0-2.623 2.133-4.757 4.728-4.757h146.888c2.595 0 4.728 2.134 4.728 4.757v95.485c0 2.624-2.133 4.757-4.728 4.757Z"
    />
    <path
      fill="#F4F2F1"
      d="M196.996 146.354H54.893a2.449 2.449 0 0 1-2.45-2.451V53.896a2.449 2.449 0 0 1 2.45-2.45h142.103a2.448 2.448 0 0 1 2.45 2.45v90.007a2.448 2.448 0 0 1-2.45 2.451Z"
    />
    <path
      fill="#79A8D7"
      opacity="0.3"
      d="M154.443 145.056c-2.999-2.595-7.9-1.931-10.927.634-.25.212-.5.433-.749.664h54.344a2.344 2.344 0 0 0 2.335-2.336v-24.015c-3.978.894-7.553 3.344-9.196 7.063-2.278-2.248-6.718-1.528-8.188 1.326-4.123-2.565-9.716-2.479-13.752.202-4.036 2.681-6.314 7.813-5.564 12.599-3.143-1.586-7.525.461-8.303 3.863ZM108.113 144.307c-2.71-1.586-6.516-1.644-8.793.548-1.153-4.527-6.544-7.467-10.955-5.997-2.883-4.411-9.774-5.42-13.81-2.047-.951-2.969-4.872-4.584-7.64-3.085-1.067-6.775-7.726-11.907-14.473-12.022v22.314a2.344 2.344 0 0 0 2.336 2.336h55.814c-.72-.779-1.556-1.499-2.479-2.047Z"
    />
    <path
      fill="#1D405C"
      fillOpacity="0.5"
      d="M144.294 178.124h-36.7v-26.726h36.7v26.726Z"
    />
    <path
      fill="#1D405C"
      d="M183.273 186.082H67.924c-2.19 0-3.95-1.788-3.95-3.979a3.938 3.938 0 0 1 3.95-3.95h115.349a3.956 3.956 0 0 1 3.95 3.95c0 2.191-1.788 3.979-3.95 3.979Z"
    />
    <path fill="#1D405C" d="m144.294 151.398-36.7 4.873v-4.873h36.7Z" />
    <path
      fill="#1D405C"
      d="M243.868 184.985c0 1.672-5.449 3.027-12.138 3.027-6.717 0-12.137-1.355-12.137-3.027 0-1.672 5.42-2.999 12.137-2.999 6.689 0 12.138 1.327 12.138 2.999Z"
    />
    <path
      fill="#6EDD72"
      d="M235.997 132.976a33.087 33.087 0 0 1 3.172-6.602c1.066-1.759 2.335-3.46 4.036-4.642.807-.577 1.903-1.009 2.739-.461.519.317.749.951.807 1.557.144 1.758-1.009 3.315-2.076 4.728-2.71 3.488-5.247 7.092-7.179 11.042-1.96 3.949-3.257 8.274-3.344 12.685-.029 1.153.144 2.854-.576 3.805-.981-.865-.462-3.229-.404-4.411.086-2.018.202-4.065.375-6.083.403-3.95 1.095-7.899 2.45-11.618ZM230.374 130.957a34.465 34.465 0 0 0-2.623-6.832c-.923-1.846-2.019-3.633-3.604-4.959-.779-.634-1.845-1.182-2.71-.692-.548.288-.836.894-.923 1.47-.317 1.759.721 3.402 1.672 4.901 2.364 3.691 4.613 7.525 6.199 11.619 1.586 4.094 2.537 8.505 2.249 12.887-.058 1.182-.404 2.854.23 3.863 1.038-.778.75-3.171.779-4.353.115-2.018.173-4.065.144-6.112-.058-3.95-.404-7.929-1.413-11.792ZM224.148 147.448c-1.586-1.413-3.316-2.71-5.19-3.777-1.557-.923-3.229-1.701-5.016-1.932-.865-.086-1.903.029-2.335.779-.26.49-.173 1.067.028 1.557.606 1.412 2.163 2.162 3.575 2.796 3.518 1.586 6.977 3.316 10.12 5.564 3.142 2.278 5.939 5.074 7.813 8.419.518.893 1.066 2.277 2.018 2.739.403-1.067-.981-2.71-1.5-3.575-.893-1.557-1.816-3.085-2.825-4.556-1.931-2.911-4.094-5.65-6.688-8.014Z"
    />
    <path
      fill="#6EDD72"
      d="M239.37 148.14a33.355 33.355 0 0 1 5.189-3.806c1.586-.922 3.258-1.701 5.045-1.902.865-.116 1.903 0 2.307.778.259.461.201 1.038 0 1.528-.606 1.442-2.163 2.162-3.575 2.797-3.518 1.585-7.006 3.315-10.12 5.593-3.142 2.248-5.939 5.045-7.841 8.418-.491.865-1.038 2.278-2.018 2.71-.375-1.067 1.009-2.681 1.527-3.575.894-1.557 1.817-3.085 2.826-4.555 1.903-2.912 4.094-5.651 6.66-7.986Z"
    />
    <path
      fill="#4F6E59"
      d="M229.856 126.604c-.115-5.045 0-10.321 2.306-14.819 1.125-2.22 2.854-4.238 5.19-5.103 2.306-.865 5.276-.259 6.631 1.817 1.009 1.499 1.009 3.459.663 5.218-.75 3.892-2.941 7.294-4.844 10.753-2.104 3.864-3.863 7.929-4.93 12.196-1.095 4.468-1.384 9.081-1.297 13.665.086 3.863 1.182 8.216.778 12.022-3.056-3.114-2.738-10.725-3.171-14.703-.75-7.006-1.211-14.012-1.326-21.046Z"
    />
    <path
      fill="#4F6E59"
      d="M245.078 128.276c1.903-2.306 4.094-4.555 6.92-5.477 1.182-.404 2.652-.519 3.603.317 1.038.922 1.038 2.537.75 3.921-1.124 5.391-5.103 9.687-8.937 13.694a2927.933 2927.933 0 0 0-7.583 7.957c-2.566 2.681-5.276 5.593-5.852 9.254-.26 1.73 0 3.604-.721 5.247-.98-5.333.836-12.252 2.451-17.355a53.788 53.788 0 0 1 9.369-17.558Z"
    />
    <path
      fill="#4F6E59"
      d="M228.097 140.587c-1.846-6.949-3.95-14.329-9.457-18.942-1.124-.922-2.623-1.758-3.978-1.239-1.73.691-2.018 2.998-1.759 4.843.404 2.912 1.442 5.708 2.652 8.389a67.076 67.076 0 0 0 5.766 10.322c3.229 4.641 7.093 9.023 8.736 14.443.259.894 1.067 6.228 2.249 5.795.951-.346.634-4.267.576-4.958-.576-6.199-3.171-12.657-4.785-18.653Z"
    />
    <path
      fill="#FF9277"
      d="M241.561 184.985h-19.662l-1.672-28.744h23.006l-1.672 28.744Z"
    />
    <path
      fill="#F4F2F1"
      d="M242.802 163.622c-.432-.144-.894-.288-1.355-.346-1.211-.23-2.249-.029-3.402.346-.634.231-1.268.404-1.96.346-.606-.086-1.211-.288-1.788-.519-1.009-.375-2.018-.836-3.142-.807-2.249.086-4.065 1.989-6.4 1.211-1.038-.346-2.019-.894-3.143-.807a3.564 3.564 0 0 0-.98.201l.057.577c.548-.202 1.125-.317 1.759-.144.98.23 1.816.894 2.825 1.095 2.134.404 3.835-1.297 5.882-1.355 2.133-.057 3.863 1.672 6.054 1.269 1.24-.231 2.306-.836 3.633-.692a6.588 6.588 0 0 1 1.931.49l.029-.865ZM220.516 161.2c.606-.23 1.24-.374 2.018-.259 1.211.202 2.278.865 3.489 1.067 1.182.173 2.075-.26 3.113-.779 1.125-.576 2.22-.634 3.431-.375 2.076.462 4.18 1.5 6.314.923 1.268-.346 2.306-.894 3.632-.807.154.019.308.048.462.086l.029-.836a7.505 7.505 0 0 0-1.788-.029c-1.009.116-1.903.635-2.883.836-1.009.202-2.018 0-2.969-.259-1.701-.461-3.431-1.182-5.219-.807-1.009.202-1.816.922-2.825 1.182-1.067.317-2.133-.144-3.171-.49-1.009-.375-2.48-.577-3.662-.231l.029.778Z"
    />
    <path
      fill="#1D405C"
      d="M51.26 198.363c0 2.306-8.246 4.209-18.452 4.209-10.206 0-18.48-1.903-18.48-4.209 0-2.335 8.274-4.238 18.48-4.238 10.206 0 18.451 1.903 18.451 4.238Z"
    />
    <path
      fill="#F4F2F1"
      d="M20.7 166.938h26.004c.548 0 .98.433.98.952v28.109c0 1.759-1.441 3.171-3.2 3.171H22.92a3.162 3.162 0 0 1-3.171-3.171V167.89a.96.96 0 0 1 .951-.952Z"
    />
    <path
      fill="#F4F2F1"
      fillRule="evenodd"
      d="M28.31 176.135v12.945a4.066 4.066 0 0 1-4.065 4.094H14.3a4.09 4.09 0 0 1-4.094-4.094v-12.945c0-2.248 1.845-4.065 4.094-4.065h9.946a4.06 4.06 0 0 1 4.065 4.065Zm-4.094 2.134a2.085 2.085 0 0 0-2.075-2.076h-5.737a2.085 2.085 0 0 0-2.076 2.076v8.678c0 1.153.922 2.075 2.076 2.075h5.737a2.067 2.067 0 0 0 2.075-2.075v-8.678Z"
      clipRule="evenodd"
    />
    <path
      fill="#F4F2F1"
      d="M19.748 172.07v4.123h-.923l.923-4.123ZM19.748 189.022v4.123h-.923l.923-4.123Z"
    />
    <path
      fill="#F4F2F1"
      d="M236.862 212.086c2.45-5.103.865-13.752-9.601-16.318a14.188 14.188 0 0 0-.864-.202 16.186 16.186 0 0 0-1.096-.202.32.32 0 0 0-.144-.029h-.115c-4.469-.691-7.986-.461-10.696.318h-.029c-5.968 1.787-7.928 6.458-7.438 10.782a8.6 8.6 0 0 0 .086.692c.115.634.269 1.249.461 1.845 2.336 6.717 19.922 9.341 26.12 6.573 1.154-.49 2.134-1.441 2.883-2.652.154-.25.298-.519.433-.807Z"
    />
    <path
      fill="#F4F2F1"
      d="M226.657 192.828c-16.318-2.566-19.835 6.746-17.529 13.377 2.278 6.602 19.576 9.168 25.63 6.458 6.083-2.681 7.438-17.414-8.101-19.835Z"
    />
    <path
      fill="#1D405C"
      d="M226.657 192.828a.914.914 0 0 0-.231-.029h-.029a20.563 20.563 0 0 0-3.892 1.96c-.692-.49-1.556-.836-2.335-1.124a13.32 13.32 0 0 0-2.652-.721c-.173-.029-.375-.029-.548-.058-.75.154-1.442.356-2.076.606a17.46 17.46 0 0 1 4.872 1.038c.635.259 1.211.576 1.788.865-.423.307-.836.624-1.24.951a20.326 20.326 0 0 0-4.382 5.161 23.953 23.953 0 0 0-1.413 2.911c-.403 1.01-.893 2.163-.836 3.258 0 .231.289.317.404.116.548-.894.778-1.961 1.211-2.941.423-.98.922-1.922 1.499-2.825a22.407 22.407 0 0 1 4.123-4.757 20.003 20.003 0 0 1 5.766-3.402 19.896 19.896 0 0 1 1.902-.606c-.605-.173-1.239-.288-1.931-.403Z"
    />
    <path
      fill="#1D405C"
      d="M237.612 210.069c.154-.25.289-.519.404-.808-3.69 1.355-7.755 1.701-11.647 1.759-5.363.115-10.754-1.009-14.963-4.469a22.06 22.06 0 0 1-2.739-2.71.906.906 0 0 1-.115-.144c.057.462.144.923.259 1.384.423.481.865.942 1.326 1.384 1.817 1.73 4.008 3.056 6.372 3.921 5.305 2.018 11.503 1.816 17.01.721a34.267 34.267 0 0 0 4.093-1.038Z"
    />
    <path
      fill="#1D405C"
      d="M183.82 202.977a1.108 1.108 0 0 0-.894-.461H64.983c-.346 0-.692.173-.894.461l-10.84 15.28v1.701c0 .432.346.778.778.778h139.855a.775.775 0 0 0 .778-.778v-1.701l-10.84-15.28Z"
    />
    <path
      fill="#1D405C"
      d="M195.554 216.326H54.143l10.84-15.28c.201-.288.547-.461.893-.461H183.85c.346 0 .663.173.865.461l10.84 15.28Z"
    />
    <path
      fill="#F4F2F1"
      d="M192.036 214.999H57.948l8.765-13.06h116.3l9.023 13.06Z"
    />
    <path
      fill="#1D405C"
      d="M54.95 218.805h139.825c.433 0 .779-.346.779-.808v-1.672H54.143v1.672c0 .462.346.808.807.808Z"
    />
    <path
      fill="#1D405C"
      d="M186.387 203.813H64.004v-.259h122.383v.259ZM188.174 206.379H61.64v-.26h126.534v.26ZM190.22 209.32H60.139v-.289H190.22v.289ZM191.402 212.26H58.986v-.288h132.416v.288Z"
    />
    <path
      fill="#1D405C"
      d="M125.123 203.697h-.288v-2.364h.288v2.364ZM125.007 209.176h-.288v-2.911h.288v2.911ZM120.425 212.146l-.26-.058.548-2.941.288.058-.576 2.941ZM120.425 206.293l-.26-.057.548-2.566.288.058-.576 2.565ZM116.271 203.727l-.259-.057.547-2.364.26.086-.548 2.335ZM116.156 209.205l-.288-.058.548-2.912.288.058-.548 2.912ZM112.15 212.146l-.289-.058.577-2.941.259.058-.547 2.941ZM112.15 206.292l-.289-.057.577-2.566.259.058-.547 2.565ZM107.967 203.727l-.259-.057.548-2.364.288.086-.577 2.335ZM107.854 209.205l-.259-.058.548-2.912.259.058-.548 2.912ZM103.845 212.146l-.259-.058.548-2.941.288.058-.577 2.941ZM103.845 206.292l-.259-.057.548-2.566.288.058-.577 2.565ZM99.695 203.727l-.289-.057.577-2.364.259.086-.547 2.335ZM99.55 209.205l-.259-.058.548-2.912.288.058-.576 2.912ZM95.572 212.146l-.289-.058.577-2.941.26.058-.549 2.941ZM95.572 206.292l-.289-.057.577-2.566.26.058-.549 2.565ZM91.391 203.727l-.26-.057.549-2.364.288.086-.577 2.335ZM91.276 209.205l-.289-.058.577-2.912.26.058-.548 2.912ZM87.27 212.146l-.26-.058.547-2.941.289.058-.577 2.941ZM87.27 206.292l-.26-.057.547-2.566.26.058-.548 2.565ZM83.116 203.727l-.288-.057.577-2.364.26.086-.549 2.335ZM82.973 209.205l-.26-.058.549-2.912.288.058-.577 2.912ZM78.994 212.146l-.288-.058.548-2.941.288.058-.548 2.941ZM78.995 206.293l-.288-.057.548-2.566.288.058-.548 2.565ZM74.813 203.727l-.26-.057.549-2.364.288.086-.577 2.335ZM74.7 209.205l-.289-.058.577-2.912.26.058-.549 2.912ZM70.693 212.146l-.289-.058.577-2.941.26.058-.548 2.941ZM70.692 206.293l-.26-.057.548-2.566.26.058-.548 2.565ZM180.275 212.146l-.577-2.941.289-.058.547 2.941-.259.058ZM180.275 206.292l-.577-2.565.289-.058.547 2.566-.259.057ZM176.094 203.727l-.548-2.335.259-.086.577 2.364-.288.057ZM175.978 209.205l-.547-2.912.259-.058.548 2.912-.26.058ZM171.971 212.146l-.548-2.941.259-.058.577 2.941-.288.058ZM171.971 206.292l-.548-2.565.259-.058.577 2.566-.288.057ZM167.531 203.699h-.288v-2.364h.288v2.364ZM167.676 209.205l-.548-2.912.288-.058.548 2.912-.288.058ZM163.696 212.146l-.577-2.941.288-.058.548 2.941-.259.058ZM163.696 206.293l-.577-2.565.288-.058.548 2.566-.259.057ZM159.257 203.699h-.288v-2.364h.288v2.364ZM159.402 209.205l-.577-2.912.288-.058.548 2.912-.259.058ZM155.394 212.146l-.547-2.941.259-.058.577 2.941-.289.058ZM155.394 206.293l-.547-2.565.259-.058.577 2.566-.289.057ZM150.953 203.697h-.288v-2.364h.288v2.364ZM151.1 209.205l-.548-2.912.259-.058.577 2.912-.288.058ZM147.091 212.146l-.548-2.941.288-.058.548 2.941-.288.058ZM147.091 206.293l-.548-2.565.288-.058.548 2.566-.288.057ZM142.94 203.727l-.547-2.335.259-.086.577 2.364-.289.057ZM142.824 209.205l-.577-2.912.288-.058.548 2.912-.259.058ZM138.816 212.146l-.547-2.941.259-.058.548 2.941-.26.058ZM138.816 206.293l-.547-2.565.259-.058.548 2.566-.26.057ZM134.665 203.727l-.576-2.335.288-.086.548 2.364-.26.057ZM134.52 209.205l-.547-2.912.259-.058.577 2.912-.289.058ZM99.55 215.114l-.259-.058.548-2.911.288.057-.576 2.912ZM91.276 215.114l-.289-.058.577-2.911.26.057-.548 2.912ZM82.973 215.114l-.26-.058.549-2.911.288.057-.577 2.912ZM74.7 215.114l-.289-.058.577-2.911.26.057-.549 2.912ZM175.978 215.114l-.547-2.912.259-.057.548 2.911-.26.058ZM167.676 215.114l-.548-2.912.288-.057.548 2.911-.288.058ZM159.402 215.114l-.577-2.912.288-.057.548 2.911-.259.058ZM151.099 215.114l-.548-2.912.259-.057.577 2.911-.288.058ZM130.514 212.146l-.548-2.941.288-.058.548 2.941-.288.058ZM130.514 206.292l-.548-2.565.259-.058.577 2.566-.288.057Z"
    />
    <path
      fill="#FF9277"
      d="M74.567 110.942v-7.386l16.912-24.19H101.7v23.655h4.388v7.921h-4.388v6.957h-9.152v-6.957H74.567ZM93.19 89.427l-8.99 13.594h8.99V89.427Zm17.381 8.403c0-6.137 1.177-10.971 3.532-14.504 2.391-3.532 6.226-5.298 11.507-5.298 5.28 0 9.098 1.766 11.453 5.298 2.39 3.533 3.586 8.367 3.586 14.504 0 6.208-1.196 11.078-3.586 14.61-2.355 3.533-6.173 5.299-11.453 5.299-5.281 0-9.116-1.766-11.507-5.299-2.355-3.532-3.532-8.402-3.532-14.61Zm21.086 0c0-3.604-.392-6.369-1.177-8.296-.785-1.962-2.408-2.943-4.87-2.943s-4.086.981-4.87 2.943c-.785 1.927-1.178 4.692-1.178 8.296 0 2.426.143 4.442.428 6.047.286 1.57.857 2.855 1.713 3.854.892.963 2.194 1.445 3.907 1.445 1.712 0 2.997-.482 3.853-1.445.892-.999 1.481-2.284 1.766-3.854.286-1.605.428-3.621.428-6.047Zm14.041 13.112v-7.386l16.912-24.19h10.222v23.655h4.388v7.921h-4.388v6.957h-9.152v-6.957h-17.982Zm18.624-21.515-8.991 13.594h8.991V89.427Z"
    />
  </svg>