<svg width="96" height="96" viewBox="0 0 96 96" fill="none" xmlns="http://www.w3.org/2000/svg">
<path d="M20 60C16.24 60 12.76 61.32 10 63.52C6.32 66.44 4 70.96 4 76C4 84.84 11.16 92 20 92C24.04 92 27.72 90.48 30.56 88C33.88 85.08 36 80.8 36 76C36 67.16 28.84 60 20 60ZM24 77C24 78.04 23.44 79.0401 22.56 79.5601L17.56 82.5601C17.08 82.8401 16.56 83 16 83C15 83 14 82.4801 13.44 81.5601C12.6 80.1201 13.04 78.2799 14.48 77.4399L18.04 75.3201V71C18.04 69.36 19.4 68 21.04 68C22.68 68 24.04 69.36 24.04 71V77H24Z" fill="#FF9277"/>
<path opacity="0.4" d="M77.92 51.8H86V46.04C86 37.76 79.24 31 70.96 31H25.04C16.76 31 10 37.76 10 46.04V63.52C12.76 61.32 16.24 60 20 60C28.84 60 36 67.16 36 76C36 79 35.16 81.84 33.68 84.24C32.84 85.68 31.76 86.96 30.52 88H70.96C79.24 88 86 81.24 86 72.96V68.2H78.4C74.08 68.2 70.12 65.04 69.76 60.72C69.52 58.2 70.48 55.84 72.16 54.2C73.64 52.68 75.68 51.8 77.92 51.8Z" fill="#FF9277"/>
<path d="M59.4 15.8V31H25.04C16.76 31 10 37.76 10 46.04V31.3601C10 26.6001 12.92 22.3599 17.36 20.6799L49.12 8.67989C54.08 6.83989 59.4 10.48 59.4 15.8Z" fill="#FF9277"/>
<path d="M90.2391 55.8799V64.1201C90.2391 66.3201 88.4791 68.12 86.2391 68.2H78.3992C74.0792 68.2 70.1192 65.04 69.7592 60.72C69.5192 58.2 70.4791 55.84 72.1591 54.2C73.6391 52.68 75.6791 51.8 77.9191 51.8H86.2391C88.4791 51.88 90.2391 53.6799 90.2391 55.8799Z" fill="#FF9277"/>
<path d="M56 51H28C26.36 51 25 49.64 25 48C25 46.36 26.36 45 28 45H56C57.64 45 59 46.36 59 48C59 49.64 57.64 51 56 51Z" fill="#FF9277"/>
</svg>
