<svg width="154" height="40" viewBox="0 0 154 40" fill="none" xmlns="http://www.w3.org/2000/svg">
<path fill-rule="evenodd" clip-rule="evenodd" d="M23.3203 1.80001C25.2903 0.990007 27.3903 0.570007 29.5203 0.570007V16.77H13.3203C13.3203 14.64 13.7403 12.54 14.5503 10.57C15.3603 8.61001 16.5603 6.82001 18.0603 5.32001C19.5603 3.82001 21.3503 2.62001 23.3103 1.81001L23.3203 1.80001Z" fill="#62AD9F"/>
<path fill-rule="evenodd" clip-rule="evenodd" d="M44.4602 6.78002C45.2702 4.81002 45.6902 2.71002 45.6902 0.580017H29.4902V16.78C31.6202 16.78 33.7202 16.36 35.6902 15.55C37.6502 14.74 39.4402 13.54 40.9402 12.04C42.4402 10.54 43.6402 8.75002 44.4502 6.79002L44.4602 6.78002Z" fill="#FFDD85"/>
<path fill-rule="evenodd" clip-rule="evenodd" d="M11.0001 22.41C12.9701 21.62 15.0801 21.22 17.2101 21.24L17.0501 37.44L0.850098 37.28C0.870098 35.15 1.3101 33.05 2.1401 31.09C2.9701 29.13 4.1801 27.36 5.7001 25.87C7.2201 24.38 9.0201 23.2 10.9901 22.41H11.0001Z" fill="#79A8D6"/>
<path fill-rule="evenodd" clip-rule="evenodd" d="M28.5899 32.61C30.0899 31.11 31.2899 29.32 32.0999 27.36C32.9099 25.4 33.3299 23.29 33.3299 21.16H17.1299V37.36C19.2599 37.36 21.3599 36.94 23.3299 36.13C25.2999 35.32 27.0799 34.12 28.5799 32.62L28.5899 32.61Z" fill="#F69279"/>
<path d="M57.5199 29.84C56.3199 29.32 55.3799 28.57 54.6999 27.61C54.0099 26.65 53.6699 25.52 53.6699 24.24H57.5899C57.6799 25.2 58.0599 26 58.7299 26.62C59.3999 27.24 60.3499 27.55 61.5699 27.55C62.7899 27.55 63.8199 27.25 64.5199 26.63C65.2299 26.02 65.5799 25.23 65.5799 24.27C65.5799 23.52 65.3599 22.91 64.9199 22.44C64.4799 21.97 63.9399 21.61 63.2799 21.35C62.6299 21.09 61.7199 20.82 60.5699 20.52C59.1099 20.14 57.9299 19.75 57.0199 19.35C56.1099 18.95 55.3399 18.34 54.6899 17.5C54.0499 16.67 53.7299 15.55 53.7299 14.16C53.7299 12.88 54.0499 11.75 54.6899 10.79C55.3299 9.83 56.2299 9.09 57.3899 8.58C58.5499 8.07 59.8799 7.81 61.3999 7.81C63.5599 7.81 65.3299 8.35 66.7099 9.43C68.0899 10.51 68.8499 11.99 68.9999 13.87H64.9599C64.8999 13.06 64.5099 12.36 63.7999 11.78C63.0899 11.2 62.1599 10.91 61.0099 10.91C59.9599 10.91 59.1099 11.18 58.4399 11.71C57.7799 12.25 57.4399 13.02 57.4399 14.02C57.4399 14.71 57.6499 15.27 58.0699 15.7C58.4899 16.14 59.0199 16.49 59.6599 16.74C60.2999 17 61.1799 17.28 62.2899 17.57C63.7699 17.98 64.9699 18.38 65.8999 18.79C66.8299 19.2 67.6199 19.82 68.2699 20.67C68.9199 21.52 69.2499 22.64 69.2499 24.06C69.2499 25.19 68.9499 26.26 68.3399 27.27C67.7299 28.28 66.8399 29.08 65.6799 29.69C64.5199 30.3 63.1399 30.6 61.5599 30.6C60.0599 30.6 58.7099 30.34 57.5199 29.81V29.84Z" fill="#1D405C"/>
<path d="M74.1099 9.7C73.6599 9.25 73.4399 8.69 73.4399 8.03C73.4399 7.37 73.6599 6.81 74.1099 6.36C74.5599 5.91 75.1199 5.69 75.7799 5.69C76.4399 5.69 76.9699 5.91 77.4199 6.36C77.8699 6.81 78.0899 7.37 78.0899 8.03C78.0899 8.69 77.8699 9.25 77.4199 9.7C76.9699 10.15 76.4299 10.37 75.7799 10.37C75.1299 10.37 74.5599 10.15 74.1099 9.7ZM77.5799 12.72V30.4H73.9199V12.72H77.5799Z" fill="#1D405C"/>
<path d="M88.92 13.24C90 12.69 91.2 12.42 92.53 12.42C94.09 12.42 95.5 12.79 96.77 13.54C98.03 14.29 99.03 15.35 99.75 16.73C100.47 18.11 100.84 19.69 100.84 21.46C100.84 23.23 100.48 24.83 99.75 26.23C99.02 27.63 98.02 28.72 96.75 29.5C95.48 30.28 94.07 30.67 92.53 30.67C91.16 30.67 89.95 30.4 88.89 29.87C87.83 29.34 86.99 28.65 86.37 27.82V30.39H82.71V6.64001H86.37V15.34C86.99 14.48 87.84 13.78 88.92 13.24ZM96.37 18.31C95.87 17.42 95.2 16.75 94.38 16.29C93.56 15.83 92.67 15.6 91.73 15.6C90.79 15.6 89.94 15.84 89.11 16.31C88.29 16.78 87.62 17.47 87.12 18.36C86.62 19.25 86.37 20.32 86.37 21.54C86.37 22.76 86.62 23.82 87.12 24.73C87.62 25.64 88.29 26.33 89.11 26.8C89.93 27.27 90.81 27.51 91.73 27.51C92.65 27.51 93.55 27.27 94.38 26.79C95.2 26.31 95.87 25.61 96.37 24.69C96.87 23.77 97.12 22.7 97.12 21.48C97.12 20.26 96.87 19.21 96.37 18.32V18.31Z" fill="#1D405C"/>
<path d="M104.68 16.76C105.42 15.39 106.42 14.33 107.7 13.57C108.97 12.81 110.38 12.43 111.92 12.43C113.31 12.43 114.52 12.7 115.56 13.25C116.6 13.8 117.43 14.47 118.05 15.29V12.72H121.74V30.4H118.05V27.77C117.43 28.6 116.58 29.3 115.51 29.86C114.44 30.42 113.22 30.69 111.85 30.69C110.33 30.69 108.94 30.3 107.68 29.52C106.42 28.74 105.42 27.65 104.68 26.25C103.94 24.85 103.57 23.26 103.57 21.48C103.57 19.7 103.94 18.13 104.68 16.76ZM117.29 18.36C116.79 17.46 116.13 16.78 115.32 16.31C114.51 15.84 113.63 15.6 112.69 15.6C111.75 15.6 110.87 15.83 110.06 16.29C109.25 16.75 108.59 17.42 108.09 18.31C107.59 19.2 107.34 20.25 107.34 21.47C107.34 22.69 107.59 23.76 108.09 24.68C108.59 25.6 109.26 26.3 110.08 26.78C110.9 27.26 111.78 27.5 112.7 27.5C113.62 27.5 114.52 27.27 115.33 26.79C116.14 26.31 116.8 25.63 117.3 24.72C117.8 23.81 118.05 22.75 118.05 21.53C118.05 20.31 117.8 19.25 117.3 18.35L117.29 18.36Z" fill="#1D405C"/>
<path d="M137.64 13.24C138.7 13.79 139.53 14.46 140.13 15.28V12.71H143.82V30.68C143.82 32.31 143.48 33.76 142.79 35.03C142.1 36.3 141.12 37.3 139.82 38.03C138.52 38.76 136.98 39.12 135.18 39.12C132.78 39.12 130.79 38.56 129.21 37.43C127.63 36.31 126.73 34.78 126.51 32.86H130.14C130.42 33.78 131.01 34.52 131.92 35.09C132.83 35.66 133.92 35.94 135.18 35.94C136.66 35.94 137.85 35.49 138.76 34.59C139.67 33.69 140.12 32.39 140.12 30.67V27.72C139.5 28.55 138.66 29.26 137.6 29.82C136.54 30.39 135.34 30.67 133.99 30.67C132.45 30.67 131.04 30.28 129.77 29.5C128.5 28.72 127.49 27.63 126.75 26.23C126.01 24.83 125.64 23.24 125.64 21.46C125.64 19.68 126.01 18.11 126.75 16.74C127.49 15.37 128.49 14.31 129.77 13.55C131.04 12.79 132.45 12.41 133.99 12.41C135.36 12.41 136.57 12.68 137.63 13.23L137.64 13.24ZM139.37 18.36C138.87 17.46 138.21 16.78 137.4 16.31C136.59 15.84 135.71 15.6 134.77 15.6C133.83 15.6 132.95 15.83 132.14 16.29C131.33 16.75 130.67 17.42 130.17 18.31C129.67 19.2 129.42 20.25 129.42 21.47C129.42 22.69 129.67 23.76 130.17 24.68C130.67 25.6 131.34 26.3 132.16 26.78C132.98 27.26 133.86 27.5 134.78 27.5C135.7 27.5 136.6 27.27 137.41 26.79C138.22 26.31 138.88 25.63 139.38 24.72C139.88 23.81 140.13 22.75 140.13 21.53C140.13 20.31 139.88 19.25 139.38 18.35L139.37 18.36Z" fill="#1D405C"/>
<path d="M149.14 9.7C148.69 9.25 148.47 8.69 148.47 8.03C148.47 7.37 148.69 6.81 149.14 6.36C149.59 5.91 150.15 5.69 150.81 5.69C151.47 5.69 152 5.91 152.45 6.36C152.9 6.81 153.12 7.37 153.12 8.03C153.12 8.69 152.9 9.25 152.45 9.7C152 10.15 151.46 10.37 150.81 10.37C150.16 10.37 149.59 10.15 149.14 9.7ZM152.61 12.72V30.4H148.95V12.72H152.61Z" fill="#1D405C"/>
</svg>
