<svg width="77" height="21" viewBox="0 0 77 21" fill="none" xmlns="http://www.w3.org/2000/svg">
<path fill-rule="evenodd" clip-rule="evenodd" d="M11.6602 1.40016C12.6452 0.995156 13.6952 0.785156 14.7602 0.785156V8.88516H6.66016C6.66016 7.82016 6.87016 6.77016 7.27516 5.78516C7.68016 4.80516 8.28016 3.91016 9.03016 3.16016C9.78016 2.41016 10.6752 1.81016 11.6552 1.40516L11.6602 1.40016Z" fill="white"/>
<path fill-rule="evenodd" clip-rule="evenodd" d="M22.2311 3.89004C22.6361 2.90504 22.8461 1.85504 22.8461 0.790039H14.7461V8.89004C15.8111 8.89004 16.8611 8.68004 17.8461 8.27504C18.8261 7.87004 19.7211 7.27004 20.4711 6.52004C21.2211 5.77004 21.8211 4.87504 22.2261 3.89504L22.2311 3.89004Z" fill="white"/>
<path fill-rule="evenodd" clip-rule="evenodd" d="M5.50078 11.7055C6.48578 11.3105 7.54078 11.1105 8.60578 11.1205L8.52578 19.2205L0.425781 19.1405C0.435781 18.0755 0.655781 17.0255 1.07078 16.0455C1.48578 15.0655 2.09078 14.1805 2.85078 13.4355C3.61078 12.6905 4.51078 12.1005 5.49578 11.7055H5.50078Z" fill="white"/>
<path fill-rule="evenodd" clip-rule="evenodd" d="M14.2964 16.8051C15.0464 16.0551 15.6464 15.1601 16.0514 14.1801C16.4564 13.2001 16.6664 12.1451 16.6664 11.0801H8.56641V19.1801C9.63141 19.1801 10.6814 18.9701 11.6664 18.5651C12.6514 18.1601 13.5414 17.5601 14.2914 16.8101L14.2964 16.8051Z" fill="white"/>
<path d="M28.7609 15.4193C28.1609 15.1593 27.6909 14.7843 27.3509 14.3043C27.0059 13.8243 26.8359 13.2593 26.8359 12.6193H28.7959C28.8409 13.0993 29.0309 13.4993 29.3659 13.8093C29.7009 14.1193 30.1759 14.2743 30.7859 14.2743C31.3959 14.2743 31.9109 14.1243 32.2609 13.8143C32.6159 13.5093 32.7909 13.1143 32.7909 12.6343C32.7909 12.2593 32.6809 11.9543 32.4609 11.7193C32.2409 11.4843 31.9709 11.3043 31.6409 11.1743C31.3159 11.0443 30.8609 10.9093 30.2859 10.7593C29.5559 10.5693 28.9659 10.3743 28.5109 10.1743C28.0559 9.9743 27.6709 9.6693 27.3459 9.2493C27.0259 8.8343 26.8659 8.2743 26.8659 7.5793C26.8659 6.9393 27.0259 6.3743 27.3459 5.8943C27.6659 5.4143 28.1159 5.0443 28.6959 4.7893C29.2759 4.5343 29.9409 4.4043 30.7009 4.4043C31.7809 4.4043 32.6659 4.6743 33.3559 5.2143C34.0459 5.7543 34.4259 6.4943 34.5009 7.4343H32.4809C32.4509 7.0293 32.2559 6.6793 31.9009 6.3893C31.5459 6.0993 31.0809 5.9543 30.5059 5.9543C29.9809 5.9543 29.5559 6.0893 29.2209 6.3543C28.8909 6.6243 28.7209 7.0093 28.7209 7.5093C28.7209 7.8543 28.8259 8.1343 29.0359 8.3493C29.2459 8.5693 29.5109 8.7443 29.8309 8.8693C30.1509 8.9993 30.5909 9.1393 31.1459 9.2843C31.8859 9.4893 32.4859 9.6893 32.9509 9.8943C33.4159 10.0993 33.8109 10.4093 34.1359 10.8343C34.4609 11.2593 34.6259 11.8193 34.6259 12.5293C34.6259 13.0943 34.4759 13.6293 34.1709 14.1343C33.8659 14.6393 33.4209 15.0393 32.8409 15.3443C32.2609 15.6493 31.5709 15.7993 30.7809 15.7993C30.0309 15.7993 29.3559 15.6693 28.7609 15.4043V15.4193Z" fill="white"/>
<path d="M37.0557 5.34973C36.8307 5.12473 36.7207 4.84473 36.7207 4.51473C36.7207 4.18473 36.8307 3.90473 37.0557 3.67973C37.2807 3.45473 37.5607 3.34473 37.8907 3.34473C38.2207 3.34473 38.4857 3.45473 38.7107 3.67973C38.9357 3.90473 39.0457 4.18473 39.0457 4.51473C39.0457 4.84473 38.9357 5.12473 38.7107 5.34973C38.4857 5.57473 38.2157 5.68473 37.8907 5.68473C37.5657 5.68473 37.2807 5.57473 37.0557 5.34973ZM38.7907 6.85973V15.6997H36.9607V6.85973H38.7907Z" fill="white"/>
<path d="M44.4605 7.11934C45.0005 6.84434 45.6005 6.70934 46.2655 6.70934C47.0455 6.70934 47.7505 6.89434 48.3855 7.26934C49.0155 7.64434 49.5155 8.17434 49.8755 8.86434C50.2355 9.55434 50.4205 10.3443 50.4205 11.2293C50.4205 12.1143 50.2405 12.9143 49.8755 13.6143C49.5105 14.3143 49.0105 14.8593 48.3755 15.2493C47.7405 15.6393 47.0355 15.8343 46.2655 15.8343C45.5805 15.8343 44.9755 15.6993 44.4455 15.4343C43.9155 15.1693 43.4955 14.8243 43.1855 14.4093V15.6943H41.3555V3.81934H43.1855V8.16934C43.4955 7.73934 43.9205 7.38934 44.4605 7.11934ZM48.1855 9.65434C47.9355 9.20934 47.6005 8.87434 47.1905 8.64434C46.7805 8.41434 46.3355 8.29934 45.8655 8.29934C45.3955 8.29934 44.9705 8.41934 44.5555 8.65434C44.1455 8.88934 43.8105 9.23434 43.5605 9.67934C43.3105 10.1243 43.1855 10.6593 43.1855 11.2693C43.1855 11.8793 43.3105 12.4093 43.5605 12.8643C43.8105 13.3193 44.1455 13.6643 44.5555 13.8993C44.9655 14.1343 45.4055 14.2543 45.8655 14.2543C46.3255 14.2543 46.7755 14.1343 47.1905 13.8943C47.6005 13.6543 47.9355 13.3043 48.1855 12.8443C48.4355 12.3843 48.5605 11.8493 48.5605 11.2393C48.5605 10.6293 48.4355 10.1043 48.1855 9.65934V9.65434Z" fill="white"/>
<path d="M52.3402 8.87984C52.7102 8.19484 53.2102 7.66484 53.8502 7.28484C54.4852 6.90484 55.1902 6.71484 55.9602 6.71484C56.6552 6.71484 57.2602 6.84984 57.7802 7.12484C58.3002 7.39984 58.7152 7.73484 59.0252 8.14484V6.85984H60.8702V15.6998H59.0252V14.3848C58.7152 14.7998 58.2902 15.1498 57.7552 15.4298C57.2202 15.7098 56.6102 15.8448 55.9252 15.8448C55.1652 15.8448 54.4702 15.6498 53.8402 15.2598C53.2102 14.8698 52.7102 14.3248 52.3402 13.6248C51.9702 12.9248 51.7852 12.1298 51.7852 11.2398C51.7852 10.3498 51.9702 9.56484 52.3402 8.87984ZM58.6452 9.67984C58.3952 9.22984 58.0652 8.88984 57.6602 8.65484C57.2552 8.41984 56.8152 8.29984 56.3452 8.29984C55.8752 8.29984 55.4352 8.41484 55.0302 8.64484C54.6252 8.87484 54.2952 9.20984 54.0452 9.65484C53.7952 10.0998 53.6702 10.6248 53.6702 11.2348C53.6702 11.8448 53.7952 12.3798 54.0452 12.8398C54.2952 13.2998 54.6302 13.6498 55.0402 13.8898C55.4502 14.1298 55.8902 14.2498 56.3502 14.2498C56.8102 14.2498 57.2602 14.1348 57.6652 13.8948C58.0702 13.6548 58.4002 13.3148 58.6502 12.8598C58.9002 12.4048 59.0252 11.8748 59.0252 11.2648C59.0252 10.6548 58.9002 10.1248 58.6502 9.67484L58.6452 9.67984Z" fill="white"/>
<path d="M68.8203 7.12008C69.3503 7.39508 69.7653 7.73008 70.0653 8.14008V6.85508H71.9103V15.8401C71.9103 16.6551 71.7403 17.3801 71.3953 18.0151C71.0503 18.6501 70.5603 19.1501 69.9103 19.5151C69.2603 19.8801 68.4903 20.0601 67.5903 20.0601C66.3903 20.0601 65.3953 19.7801 64.6053 19.2151C63.8153 18.6551 63.3653 17.8901 63.2553 16.9301H65.0703C65.2103 17.3901 65.5053 17.7601 65.9603 18.0451C66.4153 18.3301 66.9603 18.4701 67.5903 18.4701C68.3303 18.4701 68.9253 18.2451 69.3803 17.7951C69.8353 17.3451 70.0603 16.6951 70.0603 15.8351V14.3601C69.7503 14.7751 69.3303 15.1301 68.8003 15.4101C68.2703 15.6951 67.6703 15.8351 66.9953 15.8351C66.2253 15.8351 65.5203 15.6401 64.8853 15.2501C64.2503 14.8601 63.7453 14.3151 63.3753 13.6151C63.0053 12.9151 62.8203 12.1201 62.8203 11.2301C62.8203 10.3401 63.0053 9.55508 63.3753 8.87008C63.7453 8.18508 64.2453 7.65508 64.8853 7.27508C65.5203 6.89508 66.2253 6.70508 66.9953 6.70508C67.6803 6.70508 68.2853 6.84008 68.8153 7.11508L68.8203 7.12008ZM69.6853 9.68008C69.4353 9.23008 69.1053 8.89008 68.7003 8.65508C68.2953 8.42008 67.8553 8.30008 67.3853 8.30008C66.9153 8.30008 66.4753 8.41508 66.0703 8.64508C65.6653 8.87508 65.3353 9.21008 65.0853 9.65508C64.8353 10.1001 64.7103 10.6251 64.7103 11.2351C64.7103 11.8451 64.8353 12.3801 65.0853 12.8401C65.3353 13.3001 65.6703 13.6501 66.0803 13.8901C66.4903 14.1301 66.9303 14.2501 67.3903 14.2501C67.8503 14.2501 68.3003 14.1351 68.7053 13.8951C69.1103 13.6551 69.4403 13.3151 69.6903 12.8601C69.9403 12.4051 70.0653 11.8751 70.0653 11.2651C70.0653 10.6551 69.9403 10.1251 69.6903 9.67508L69.6853 9.68008Z" fill="white"/>
<path d="M74.5713 5.34973C74.3463 5.12473 74.2363 4.84473 74.2363 4.51473C74.2363 4.18473 74.3463 3.90473 74.5713 3.67973C74.7963 3.45473 75.0763 3.34473 75.4063 3.34473C75.7363 3.34473 76.0013 3.45473 76.2263 3.67973C76.4513 3.90473 76.5613 4.18473 76.5613 4.51473C76.5613 4.84473 76.4513 5.12473 76.2263 5.34973C76.0013 5.57473 75.7313 5.68473 75.4063 5.68473C75.0813 5.68473 74.7963 5.57473 74.5713 5.34973ZM76.3063 6.85973V15.6997H74.4763V6.85973H76.3063Z" fill="white"/>
</svg>
