<svg width="72" height="72" viewBox="0 0 72 72" fill="none" xmlns="http://www.w3.org/2000/svg">
<path opacity="0.4" d="M48.57 6H23.43C12.51 6 6 12.51 6 23.43V48.54C6 59.49 12.51 66 23.43 66H48.54C59.46 66 65.97 59.49 65.97 48.57V23.43C66 12.51 59.49 6 48.57 6Z" fill="#4CE152"/>
<path d="M31.7403 46.74C31.1403 46.74 30.5703 46.5 30.1503 46.08L21.6603 37.59C20.7903 36.72 20.7903 35.28 21.6603 34.41C22.5303 33.54 23.9703 33.54 24.8403 34.41L31.7403 41.3101L47.1603 25.89C48.0303 25.02 49.4703 25.02 50.3403 25.89C51.2103 26.76 51.2103 28.2 50.3403 29.07L33.3303 46.08C32.9103 46.5 32.3403 46.74 31.7403 46.74Z" fill="#4CE152"/>
</svg>
