<svg width="40" height="40" viewBox="0 0 24 24" fill="none" xmlns="http://www.w3.org/2000/svg">
  <path d="M12.027 0h-.054C5.36 0 0 5.362 0 11.976v.055c0 6.614 5.36 11.976 11.973 11.976h.054C18.64 24.007 24 18.645 24 12.031v-.055C24 5.362 18.64 0 12.027 0" fill="#1D405C"/>
  <path d="M17.802 8.685v2.267a5.96 5.96 0 0 1-3.139-1.27v4.58l-.01-.014q.01.136.01.277a4.13 4.13 0 0 1-4.126 4.127 4.13 4.13 0 0 1-4.126-4.128 4.132 4.132 0 0 1 4.78-4.075v2.233a1.957 1.957 0 0 0-2.61 1.842 1.96 1.96 0 0 0 1.956 1.955 1.957 1.957 0 0 0 1.95-2.076V5.5h2.265l.024.577c.015.378.15.74.384 1.038.275.349.681.754 1.252 1.078a4.3 4.3 0 0 0 1.39.494z" fill="#FFFFFF"/>
</svg>
