<svg xmlns="http://www.w3.org/2000/svg" width="140" height="140" viewBox="0 0 140 140">
  <path d="m30.54-.404 2.822-.02c3.063-.02 6.126-.015 9.189-.01l6.422-.015q6.724-.014 13.449.003c5.726.011 11.452-.009 17.178-.038 4.42-.018 8.841-.018 13.262-.012q3.165 0 6.33-.019c2.96-.015 5.92-.004 8.88.013l2.606-.029c7.353.088 13.835 2.118 19.908 6.32l1.789 1.836 1.836 1.79c7.276 10.515 6.36 21.745 6.285 34.026q0 3.141.005 6.283 0 6.563-.034 13.124c-.029 5.59-.026 11.181-.013 16.772.007 4.32-.001 8.639-.014 12.958q-.006 3.092 0 6.182c.002 2.886-.014 5.77-.036 8.656l.014 2.546c-.117 9.405-2.755 16.26-9.227 23.089-5.194 4.62-11.26 7.053-18.211 7.096l-2.395.022-2.601.008-2.761.02q-4.522.028-9.043.041l-3.127.013q-8.198.03-16.394.044c-5.629.011-11.257.046-16.886.085-4.34.027-8.682.035-13.023.038a939 939 0 0 0-6.221.035c-2.913.025-5.824.024-8.737.017l-2.563.039c-7.315-.063-13.81-2.098-19.815-6.333l-1.789-1.864-1.836-1.824c-4.847-6.74-6.385-13.12-6.338-21.315l-.031-2.842a887 887 0 0 1-.022-9.226q-.01-3.232-.026-6.466-.02-6.765-.003-13.529C-.62 71.357-.654 65.605-.7 59.852c-.03-4.45-.031-8.9-.025-13.35q-.001-3.18-.032-6.36C-.94 18.093-.94 18.093 6 9 13.204 1.968 20.686-.455 30.54-.404"/>
  <path d="M74 27h12l1.063 3.625C88.917 35.475 91.54 38.359 96 41c3.32 1.283 6.53 2.145 10 3v18c-9-1.125-9-1.125-13-3.562l-2.312-1.38L89 56l.063 3.162c.073 3.908.119 7.816.157 11.724q.03 2.528.082 5.054c.242 12.012-.107 21.256-8.587 30.556-6.228 5.462-13.46 6.88-21.516 6.774-8.084-.682-14.068-4.056-19.504-10.008-4.578-6.109-6.52-12.775-6.207-20.39 1.393-7.816 5.383-15.038 11.817-19.759L47 62l2.625-1.875C55.06 58.313 60.297 58.825 66 59v15l-4.687.188c-3.986.383-5.124.661-8.376 3.25C49.858 81.512 49.573 83.859 50 89c2.027 3.704 3.48 5.654 7 8 5.3.427 8.747.524 13-3 2.78-3.839 3.384-6.553 3.432-11.259l.06-3.76.02-4.032.054-4.149c.048-3.628.077-7.256.104-10.884.03-3.707.076-7.414.121-11.121.086-7.265.152-14.53.209-21.795" fill="#F9F9F9"/>
</svg>
