<svg xmlns="http://www.w3.org/2000/svg" width="120" height="140" viewBox="0 0 120 140">
  <path d="M70.15-1.648c5.63.249 11.263.356 16.897.476C98.038-.917 109.017-.509 120 0c7.9 62.421 7.9 62.421-6.573 82.32-4.412 5.659-9.381 10.663-14.614 15.555l-1.502 1.44c-18.103 17.354-18.103 17.354-30.808 17.668a245 245 0 0 1-5.332-.202c-5.379-.19-8.443.277-12.612 3.807-2.581 2.532-4.93 5.2-7.246 7.975a666 666 0 0 1-4.437 4.901 232 232 0 0 0-3.87 4.44L31 140h-2v-23l-29-1c-.547-11.58-.985-23.152-1.243-34.742-.125-5.386-.292-10.761-.568-16.14-2.044-41.194-2.044-41.194 9.358-54.473C23.605-6.147 48.927-2.686 70.15-1.648" fill="#9045FF"/>
  <path d="M30 10h80l1.188 26.813.524 8.335c.426 11.703-.01 20.566-8.072 29.607-6.489 6.437-11.322 11.11-20.832 11.083l-2.496-.15c-6.378-.382-10.077-.45-15.124 3.867-3.529 3.448-6.762 7.126-9.825 10.992L54 102h-2V85H30z" fill="#FDFBFF"/>
  <path d="M85 28h10v29H85z" fill="#8F43FF"/>
  <path d="M58 28h9v29h-9z" fill="#8B3CFF"/>
</svg>
