<svg xmlns="http://www.w3.org/2000/svg" width="60" height="30">
  <path d="M0 0h60v30H0z" fill="#CD0F24"/>
  <path d="M0 18h27v12H0z" fill="#E1979C"/>
  <path d="M33 18h27v12H33z" fill="#F3EEF2"/>
  <path d="M33 0h27v12H33z" fill="#E1989D"/>
  <path d="M0 0h27v12H0z" fill="#F4EFF2"/>
  <path d="M0 18h20c-1 3-1 3-2.858 4.167l-2.396 1.095-2.588 1.2-2.72 1.226c-.902.415-1.804.83-2.733 1.26C4.475 27.973 2.238 28.987 0 30z" fill="#F3EFF3"/>
  <path d="M40 18h20v12a1407 1407 0 0 1-9.437-4.312l-2.721-1.225-2.588-1.201-2.396-1.095C41 21 41 21 40 18" fill="#E29CA1"/>
  <path d="M0 0q4.727 2.138 9.438 4.313l2.72 1.224 2.588 1.201 2.396 1.095C19 9 19 9 20 12H0z" fill="#EFEBEF"/>
  <path d="M60 0v12H41V9q4.467-2.254 8.938-4.5l2.576-1.3 2.45-1.231 2.27-1.143C59 0 59 0 60 0" fill="#F8F6F7"/>
  <path d="M8 0h17v9c-3.896-1.489-7.591-3.244-11.312-5.125l-3.239-1.633L8 1z" fill="#06277C"/>
  <path d="m35 21 17 8v1H35z" fill="#05267B"/>
  <path d="M25 21v9H8c3.39-2.542 6.418-4.328 10.188-6.187l3.23-1.606C24 21 24 21 25 21M35 0h17c-3.587 2.69-6.694 4.362-10.75 6.188-1.17.53-2.34 1.06-3.547 1.605L35 9z" fill="#05287D"/>
  <path d="M48 20h12v6c-4.234-1.31-8.074-2.944-12-5z" fill="#08277D"/>
  <path d="M0 20h12c-8 6-8 6-12 6zM60 4v6H48c8-6 8-6 12-6" fill="#07247A"/>
  <path d="M0 4c4.234 1.31 8.074 2.944 12 5v1H0z" fill="#08277D"/>
  <path d="m59 0 1 4q-2.434 1.256-4.875 2.5l-2.742 1.406C50 9 50 9 48 9c.184-1.828.184-1.828 1-4 2.285-1.484 2.285-1.484 5.063-2.75L56.848.953z" fill="#EDE6ED"/>
  <path d="m0 0 19 9v1c-4.952.606-8.233-1.513-12.312-4L4.732 4.844A551 551 0 0 1 0 2z" fill="#CD1E24"/>
</svg>
