<svg width="283" height="250" viewBox="0 0 283 250" fill="none" xmlns="http://www.w3.org/2000/svg">
<g clip-path="url(#clip0_995_2607)">
<path d="M174.58 87.1051C174.58 135.185 135.633 174.131 87.5543 174.131C39.4743 174.131 0.527344 135.185 0.527344 87.1051C0.527344 39.0251 39.4743 0.0800781 87.5533 0.0800781C135.633 0.0800781 174.58 39.0261 174.58 87.1051Z" fill="#62AD9E"/>
<path d="M282.123 160.871C282.123 209.671 242.603 249.191 193.963 249.191C145.163 249.191 105.643 209.671 105.643 160.871C105.643 112.231 145.163 72.7109 193.963 72.7109C242.603 72.7109 282.123 112.231 282.123 160.871Z" fill="#79A8D7"/>
<path d="M189.095 189.456H62.791C61.8967 189.455 61.0394 189.099 60.4071 188.467C59.7747 187.834 59.419 186.977 59.418 186.083C59.418 184.209 60.918 182.681 62.791 182.681H189.095C190.969 182.681 192.468 184.209 192.468 186.083C192.467 186.977 192.111 187.834 191.479 188.467C190.847 189.099 189.989 189.455 189.095 189.456Z" fill="#F4F2F1"/>
<path d="M199.387 151.399H52.4995C49.9045 151.399 47.7715 149.266 47.7715 146.642V51.1574C47.7715 48.5344 49.9045 46.4004 52.4995 46.4004H199.387C201.982 46.4004 204.115 48.5344 204.115 51.1574V146.642C204.115 149.266 201.982 151.399 199.387 151.399Z" fill="#1D405C"/>
<path d="M196.996 146.354H54.8934C54.5715 146.354 54.2528 146.291 53.9554 146.168C53.658 146.045 53.3878 145.864 53.1603 145.637C52.9328 145.409 52.7523 145.139 52.6293 144.841C52.5063 144.544 52.4431 144.225 52.4434 143.903V53.8963C52.4432 53.5745 52.5065 53.2559 52.6296 52.9586C52.7527 52.6613 52.9331 52.3911 53.1607 52.1636C53.3882 51.9361 53.6583 51.7556 53.9556 51.6325C54.2529 51.5094 54.5716 51.4462 54.8934 51.4463H196.996C197.318 51.446 197.637 51.5092 197.934 51.6322C198.232 51.7553 198.502 51.9357 198.729 52.1633C198.957 52.3908 199.137 52.661 199.26 52.9584C199.383 53.2558 199.447 53.5745 199.446 53.8963V143.903C199.447 144.225 199.384 144.544 199.261 144.841C199.138 145.139 198.957 145.409 198.73 145.637C198.502 145.865 198.232 146.045 197.934 146.168C197.637 146.291 197.318 146.355 196.996 146.354Z" fill="#F4F2F1"/>
<path d="M154.442 145.056C151.443 142.461 146.542 143.125 143.515 145.69C143.265 145.902 143.015 146.123 142.766 146.354H197.11C197.729 146.352 198.322 146.105 198.759 145.667C199.197 145.229 199.443 144.637 199.445 144.018V120.003C195.467 120.897 191.892 123.347 190.249 127.066C187.971 124.818 183.531 125.538 182.061 128.392C177.938 125.827 172.345 125.913 168.309 128.594C164.273 131.275 161.995 136.407 162.745 141.193C159.602 139.607 155.22 141.654 154.442 145.056ZM108.112 144.307C105.402 142.721 101.596 142.663 99.3194 144.855C98.1664 140.328 92.7754 137.388 88.3644 138.858C85.4814 134.447 78.5904 133.438 74.5544 136.811C73.6034 133.842 69.6824 132.227 66.9144 133.726C65.8474 126.951 59.1884 121.819 52.4414 121.704V144.018C52.4435 144.637 52.6903 145.23 53.1279 145.667C53.5656 146.105 54.1585 146.352 54.7774 146.354H110.591C109.871 145.575 109.035 144.855 108.112 144.307Z" fill="#79A8D7" fill-opacity="0.5"/>
<path d="M144.294 178.124H107.594V151.398H144.294V178.124Z" fill="#1D405C"/>
<path d="M183.274 186.082H67.9246C65.7346 186.082 63.9746 184.294 63.9746 182.103C63.973 181.584 64.0741 181.07 64.2721 180.59C64.47 180.11 64.7609 179.674 65.128 179.307C65.4951 178.94 65.9312 178.649 66.4112 178.451C66.8911 178.253 67.4055 178.152 67.9246 178.153H183.274C184.321 178.155 185.325 178.572 186.065 179.312C186.805 180.052 187.222 181.056 187.224 182.103C187.224 184.294 185.436 186.082 183.274 186.082Z" fill="#1D405C"/>
<path d="M144.294 151.398L107.594 156.271V151.398H144.294Z" fill="#2E344B"/>
<path d="M243.869 184.985C243.869 186.657 238.42 188.012 231.731 188.012C225.014 188.012 219.594 186.657 219.594 184.985C219.594 183.313 225.014 181.986 231.731 181.986C238.42 181.986 243.869 183.313 243.869 184.985Z" fill="#1D405C"/>
<path d="M235.997 132.976C236.807 130.665 237.87 128.45 239.169 126.374C240.235 124.615 241.504 122.914 243.205 121.732C244.012 121.155 245.108 120.723 245.944 121.271C246.463 121.588 246.693 122.222 246.751 122.828C246.895 124.586 245.742 126.143 244.675 127.556C241.965 131.044 239.428 134.648 237.496 138.598C235.536 142.547 234.239 146.872 234.152 151.283C234.123 152.436 234.296 154.137 233.576 155.088C232.595 154.223 233.114 151.859 233.172 150.677C233.258 148.659 233.374 146.612 233.547 144.594C233.95 140.644 234.642 136.695 235.997 132.976ZM230.374 130.957C229.744 128.593 228.865 126.303 227.751 124.125C226.828 122.279 225.732 120.492 224.147 119.166C223.368 118.532 222.302 117.984 221.437 118.474C220.889 118.762 220.601 119.368 220.514 119.944C220.197 121.703 221.235 123.346 222.186 124.845C224.55 128.536 226.799 132.37 228.385 136.464C229.971 140.558 230.922 144.969 230.634 149.351C230.576 150.533 230.23 152.205 230.864 153.214C231.902 152.436 231.614 150.043 231.643 148.861C231.758 146.843 231.816 144.796 231.787 142.749C231.729 138.799 231.383 134.82 230.374 130.957ZM224.148 147.448C222.562 146.035 220.832 144.738 218.958 143.671C217.401 142.748 215.729 141.97 213.942 141.739C213.077 141.653 212.039 141.768 211.607 142.518C211.347 143.008 211.434 143.585 211.635 144.075C212.241 145.487 213.798 146.237 215.21 146.871C218.728 148.457 222.187 150.187 225.33 152.435C228.472 154.713 231.269 157.509 233.143 160.854C233.661 161.747 234.209 163.131 235.161 163.593C235.564 162.526 234.18 160.883 233.661 160.018C232.768 158.461 231.845 156.933 230.836 155.462C228.905 152.551 226.742 149.812 224.148 147.448Z" fill="#6EDD72"/>
<path d="M239.37 148.14C240.973 146.707 242.71 145.432 244.559 144.334C246.145 143.412 247.817 142.633 249.604 142.432C250.469 142.316 251.507 142.432 251.911 143.21C252.17 143.671 252.112 144.248 251.911 144.738C251.305 146.18 249.748 146.9 248.336 147.535C244.818 149.12 241.33 150.85 238.216 153.128C235.074 155.376 232.277 158.173 230.375 161.546C229.884 162.411 229.337 163.824 228.357 164.256C227.982 163.189 229.366 161.575 229.884 160.681C230.778 159.124 231.701 157.596 232.71 156.126C234.613 153.214 236.804 150.475 239.37 148.14Z" fill="#6EDD72"/>
<path d="M229.856 126.604C229.741 121.559 229.856 116.283 232.162 111.785C233.287 109.565 235.016 107.547 237.352 106.682C239.658 105.817 242.628 106.423 243.983 108.499C244.992 109.998 244.992 111.958 244.646 113.717C243.896 117.609 241.705 121.011 239.802 124.47C237.698 128.334 235.939 132.399 234.872 136.666C233.777 141.134 233.488 145.747 233.575 150.331C233.661 154.194 234.757 158.547 234.353 162.353C231.297 159.239 231.615 151.628 231.182 147.65C230.432 140.644 229.971 133.638 229.856 126.604Z" fill="#4F6E59"/>
<path d="M245.077 128.276C246.98 125.97 249.171 123.721 251.997 122.799C253.179 122.395 254.649 122.28 255.6 123.116C256.638 124.038 256.638 125.653 256.35 127.037C255.226 132.428 251.247 136.724 247.413 140.731C244.88 143.378 242.353 146.031 239.83 148.688C237.264 151.369 234.554 154.281 233.978 157.942C233.718 159.672 233.978 161.546 233.257 163.189C232.277 157.856 234.093 150.937 235.708 145.834C237.712 139.449 240.889 133.495 245.077 128.276Z" fill="#4F6E59"/>
<path d="M228.097 140.587C226.251 133.638 224.147 126.258 218.64 121.645C217.516 120.723 216.017 119.887 214.662 120.406C212.932 121.097 212.644 123.404 212.903 125.249C213.307 128.161 214.345 130.957 215.555 133.638C217.169 137.241 219.099 140.695 221.321 143.96C224.55 148.601 228.414 152.983 230.057 158.403C230.316 159.297 231.124 164.631 232.306 164.198C233.257 163.852 232.94 159.931 232.882 159.24C232.306 153.041 229.711 146.583 228.097 140.587Z" fill="#4F6E59"/>
<path d="M241.561 184.985H221.899L220.227 156.241H243.233L241.561 184.985Z" fill="#FF9277"/>
<path d="M242.801 163.622C242.369 163.478 241.907 163.334 241.446 163.276C240.235 163.046 239.197 163.247 238.044 163.622C237.41 163.853 236.776 164.026 236.084 163.968C235.478 163.882 234.873 163.68 234.296 163.449C233.287 163.074 232.278 162.613 231.154 162.642C228.905 162.728 227.089 164.631 224.754 163.853C223.716 163.507 222.735 162.959 221.611 163.046C221.277 163.066 220.947 163.134 220.631 163.247L220.688 163.824C221.236 163.622 221.813 163.507 222.447 163.68C223.427 163.91 224.263 164.574 225.272 164.775C227.406 165.179 229.107 163.478 231.154 163.42C233.287 163.363 235.017 165.092 237.208 164.689C238.448 164.458 239.514 163.853 240.841 163.997C241.506 164.061 242.157 164.227 242.772 164.487L242.801 163.622ZM220.515 161.2C221.121 160.97 221.755 160.826 222.533 160.941C223.744 161.143 224.811 161.806 226.022 162.008C227.204 162.181 228.097 161.748 229.135 161.229C230.26 160.653 231.355 160.595 232.566 160.854C234.642 161.316 236.746 162.354 238.88 161.777C240.148 161.431 241.186 160.883 242.512 160.97C242.666 160.989 242.82 161.018 242.974 161.056L243.003 160.22C242.411 160.139 241.81 160.129 241.215 160.191C240.206 160.307 239.312 160.826 238.332 161.027C237.323 161.229 236.314 161.027 235.363 160.768C233.662 160.307 231.932 159.586 230.144 159.961C229.135 160.163 228.328 160.883 227.319 161.143C226.252 161.46 225.186 160.999 224.148 160.653C223.139 160.278 221.668 160.076 220.486 160.422L220.515 161.2Z" fill="#F4F2F1"/>
<path d="M51.2601 198.363C51.2601 200.669 43.0141 202.572 32.8081 202.572C22.6021 202.572 14.3281 200.669 14.3281 198.363C14.3281 196.028 22.6021 194.125 32.8081 194.125C43.0141 194.125 51.2601 196.028 51.2601 198.363Z" fill="#1D405C"/>
<path d="M20.6991 166.938H46.7031C47.2511 166.938 47.6831 167.371 47.6831 167.89V195.999C47.6831 197.758 46.2421 199.17 44.4831 199.17H22.9191C22.5023 199.172 22.0894 199.09 21.7042 198.932C21.3189 198.773 20.9689 198.539 20.6742 198.244C20.3795 197.95 20.146 197.6 19.987 197.214C19.8281 196.829 19.7469 196.416 19.7481 195.999V167.89C19.7501 167.639 19.851 167.398 20.0288 167.22C20.2067 167.042 20.4474 166.941 20.6991 166.938Z" fill="#F4F2F1"/>
<path d="M28.3091 176.135V189.08C28.3128 189.617 28.2104 190.148 28.0077 190.645C27.8051 191.141 27.5063 191.593 27.1285 191.973C26.7506 192.354 26.3013 192.656 25.8063 192.862C25.3112 193.068 24.7803 193.174 24.2441 193.174H14.2991C13.7613 193.175 13.2287 193.069 12.7318 192.864C12.2348 192.658 11.7833 192.357 11.403 191.976C11.0227 191.596 10.7212 191.145 10.5156 190.648C10.3101 190.151 10.2046 189.618 10.2051 189.08V176.135C10.2051 173.887 12.0501 172.07 14.2991 172.07H24.2451C24.7791 172.07 25.308 172.174 25.8015 172.378C26.295 172.582 26.7433 172.882 27.1209 173.259C27.4985 173.637 27.7979 174.085 28.002 174.579C28.206 175.072 28.3107 175.601 28.3101 176.135H28.3091ZM24.2151 178.269C24.2127 177.72 23.9934 177.193 23.6048 176.804C23.2162 176.416 22.6898 176.196 22.1401 176.193H16.4031C15.8532 176.196 15.3266 176.415 14.9377 176.804C14.5489 177.193 14.3294 177.719 14.3271 178.269V186.947C14.3271 188.1 15.2491 189.022 16.4031 189.022H22.1401C22.4129 189.023 22.6832 188.97 22.9354 188.867C23.1876 188.763 23.4168 188.61 23.6097 188.417C23.8026 188.224 23.9554 187.995 24.0593 187.743C24.1632 187.49 24.2161 187.22 24.2151 186.947V178.269Z" fill="#F4F2F1"/>
<path d="M19.7472 172.07V176.193H18.8242L19.7472 172.07ZM19.7472 189.022V193.145H18.8242L19.7472 189.022Z" fill="#F4F2F1"/>
<path d="M236.862 212.086C239.312 206.983 237.727 198.334 227.261 195.768C226.975 195.692 226.687 195.624 226.397 195.566C226.034 195.486 225.668 195.419 225.301 195.364C225.256 195.343 225.206 195.333 225.157 195.335H225.042C220.573 194.644 217.056 194.874 214.346 195.653H214.317C208.349 197.44 206.389 202.111 206.879 206.435C206.898 206.667 206.927 206.898 206.965 207.127C207.08 207.761 207.234 208.376 207.426 208.972C209.762 215.689 227.348 218.313 233.546 215.545C234.7 215.055 235.68 214.104 236.429 212.893C236.583 212.643 236.727 212.374 236.862 212.086Z" fill="#F4F2F1"/>
<path d="M226.658 192.828C210.34 190.262 206.823 199.574 209.129 206.205C211.407 212.807 228.705 215.373 234.759 212.663C240.842 209.982 242.197 195.249 226.658 192.828Z" fill="#F4F2F1"/>
<path d="M226.656 192.828C226.581 192.808 226.503 192.799 226.425 192.799H226.396C225.033 193.312 223.729 193.969 222.504 194.759C221.812 194.269 220.948 193.923 220.169 193.635C219.313 193.304 218.424 193.062 217.517 192.914C217.344 192.885 217.142 192.885 216.969 192.856C216.219 193.01 215.527 193.212 214.893 193.462C216.559 193.573 218.199 193.923 219.765 194.5C220.4 194.759 220.976 195.076 221.553 195.365C221.13 195.672 220.717 195.989 220.313 196.316C218.574 197.779 217.093 199.524 215.931 201.477C215.395 202.414 214.923 203.387 214.518 204.388C214.115 205.398 213.625 206.551 213.682 207.646C213.682 207.877 213.971 207.963 214.086 207.762C214.634 206.868 214.864 205.801 215.297 204.821C215.72 203.841 216.219 202.899 216.796 201.996C217.94 200.224 219.328 198.623 220.919 197.239C222.637 195.789 224.586 194.639 226.685 193.837C227.309 193.603 227.944 193.401 228.587 193.231C227.982 193.058 227.348 192.943 226.656 192.828Z" fill="#1D405C"/>
<path d="M237.613 210.069C237.767 209.819 237.902 209.55 238.017 209.261C234.327 210.616 230.262 210.962 226.37 211.02C221.007 211.135 215.616 210.011 211.407 206.551C210.416 205.73 209.5 204.823 208.668 203.841C208.625 203.797 208.586 203.749 208.553 203.697C208.61 204.159 208.697 204.62 208.812 205.081C209.235 205.562 209.677 206.023 210.138 206.465C211.955 208.195 214.146 209.521 216.51 210.386C221.815 212.404 228.013 212.202 233.52 211.107C234.904 210.846 236.271 210.499 237.613 210.069Z" fill="#1D405C"/>
<path d="M183.819 202.977C183.717 202.835 183.583 202.719 183.427 202.639C183.272 202.559 183.1 202.516 182.925 202.516H64.982C64.636 202.516 64.29 202.689 64.088 202.977L53.248 218.257V219.958C53.248 220.39 53.594 220.736 54.026 220.736H193.881C193.983 220.736 194.085 220.716 194.179 220.677C194.274 220.638 194.36 220.581 194.432 220.509C194.504 220.436 194.562 220.35 194.601 220.256C194.64 220.161 194.659 220.06 194.659 219.958V218.257L183.819 202.977Z" fill="#1D405C"/>
<path d="M195.554 216.326H54.1426L64.9826 201.046C65.1836 200.758 65.5296 200.585 65.8756 200.585H183.85C184.196 200.585 184.513 200.758 184.715 201.046L195.554 216.326Z" fill="#1D405C"/>
<path d="M192.035 214.999H57.9473L66.7123 201.939H183.012L192.035 214.999Z" fill="#F4F2F1"/>
<path d="M54.9496 218.805H194.775C195.208 218.805 195.554 218.459 195.554 217.997V216.325H54.1426V217.997C54.1426 218.459 54.4886 218.805 54.9496 218.805Z" fill="#1D405C"/>
<path d="M186.387 203.813H64.0043V203.554H186.387V203.813ZM188.174 206.379H61.6403V206.119H188.174V206.379ZM190.22 209.32H60.1393V209.031H190.22V209.32ZM191.402 212.26H58.9863V211.972H191.402V212.26Z" fill="#1D405C"/>
<path d="M125.123 203.697H124.835V201.333H125.123V203.697ZM125.007 209.176H124.719V206.265H125.007V209.176ZM120.425 212.146L120.165 212.088L120.713 209.147L121.001 209.205L120.425 212.146ZM120.425 206.293L120.165 206.236L120.713 203.67L121.001 203.728L120.425 206.293ZM116.271 203.727L116.012 203.67L116.559 201.306L116.819 201.392L116.271 203.727ZM116.156 209.205L115.868 209.147L116.416 206.235L116.704 206.293L116.156 209.205ZM112.15 212.146L111.861 212.088L112.438 209.147L112.697 209.205L112.15 212.146ZM112.15 206.292L111.861 206.235L112.438 203.669L112.697 203.727L112.15 206.292ZM107.967 203.727L107.708 203.67L108.256 201.306L108.544 201.392L107.967 203.727ZM107.854 209.205L107.595 209.147L108.143 206.235L108.402 206.293L107.854 209.205ZM103.845 212.146L103.586 212.088L104.134 209.147L104.422 209.205L103.845 212.146ZM103.845 206.292L103.586 206.235L104.134 203.669L104.422 203.727L103.845 206.292ZM99.6953 203.727L99.4063 203.67L99.9833 201.306L100.242 201.392L99.6953 203.727ZM99.5503 209.205L99.2913 209.147L99.8393 206.235L100.127 206.293L99.5503 209.205ZM95.5723 212.146L95.2833 212.088L95.8603 209.147L96.1203 209.205L95.5723 212.146ZM95.5723 206.292L95.2833 206.235L95.8603 203.669L96.1203 203.727L95.5723 206.292ZM91.3913 203.727L91.1313 203.67L91.6803 201.306L91.9683 201.392L91.3913 203.727ZM91.2763 209.205L90.9873 209.147L91.5643 206.235L91.8243 206.293L91.2763 209.205ZM87.2703 212.146L87.0103 212.088L87.5573 209.147L87.8463 209.205L87.2703 212.146ZM87.2703 206.292L87.0103 206.235L87.5573 203.669L87.8173 203.727L87.2703 206.292ZM83.1163 203.727L82.8283 203.67L83.4053 201.306L83.6653 201.392L83.1163 203.727ZM82.9733 209.205L82.7133 209.147L83.2623 206.235L83.5503 206.293L82.9733 209.205ZM78.9943 212.146L78.7063 212.088L79.2543 209.147L79.5423 209.205L78.9943 212.146ZM78.9953 206.293L78.7073 206.236L79.2553 203.67L79.5433 203.728L78.9953 206.293ZM74.8133 203.727L74.5533 203.67L75.1023 201.306L75.3903 201.392L74.8133 203.727ZM74.7003 209.205L74.4113 209.147L74.9883 206.235L75.2483 206.293L74.7003 209.205ZM70.6933 212.146L70.4043 212.088L70.9813 209.147L71.2413 209.205L70.6933 212.146ZM70.6923 206.293L70.4323 206.236L70.9803 203.67L71.2403 203.728L70.6923 206.293ZM180.275 212.146L179.698 209.205L179.987 209.147L180.534 212.088L180.275 212.146ZM180.275 206.292L179.698 203.727L179.987 203.669L180.534 206.235L180.275 206.292ZM176.094 203.727L175.546 201.392L175.805 201.306L176.382 203.67L176.094 203.727ZM175.978 209.205L175.431 206.293L175.69 206.235L176.238 209.147L175.978 209.205ZM171.971 212.146L171.423 209.205L171.682 209.147L172.259 212.088L171.971 212.146ZM171.971 206.292L171.423 203.727L171.682 203.669L172.259 206.235L171.971 206.292ZM167.531 203.699H167.243V201.335H167.531V203.699ZM167.676 209.205L167.128 206.293L167.416 206.235L167.964 209.147L167.676 209.205ZM163.696 212.146L163.119 209.205L163.407 209.147L163.955 212.088L163.696 212.146ZM163.696 206.293L163.119 203.728L163.407 203.67L163.955 206.236L163.696 206.293ZM159.257 203.699H158.969V201.335H159.257V203.699ZM159.402 209.205L158.825 206.293L159.113 206.235L159.661 209.147L159.402 209.205ZM155.394 212.146L154.847 209.205L155.106 209.147L155.683 212.088L155.394 212.146ZM155.394 206.293L154.847 203.728L155.106 203.67L155.683 206.236L155.394 206.293ZM150.953 203.697H150.665V201.333H150.953V203.697ZM151.1 209.205L150.552 206.293L150.811 206.235L151.388 209.147L151.1 209.205ZM147.091 212.146L146.543 209.205L146.831 209.147L147.379 212.088L147.091 212.146ZM147.091 206.293L146.543 203.728L146.831 203.67L147.379 206.236L147.091 206.293ZM142.94 203.727L142.393 201.392L142.652 201.306L143.229 203.67L142.94 203.727ZM142.824 209.205L142.247 206.293L142.535 206.235L143.083 209.147L142.824 209.205ZM138.816 212.146L138.269 209.205L138.528 209.147L139.076 212.088L138.816 212.146ZM138.816 206.293L138.269 203.728L138.528 203.67L139.076 206.236L138.816 206.293ZM134.665 203.727L134.089 201.392L134.377 201.306L134.925 203.67L134.665 203.727ZM134.52 209.205L133.973 206.293L134.232 206.235L134.809 209.147L134.52 209.205ZM99.5503 215.114L99.2913 215.056L99.8393 212.145L100.127 212.202L99.5503 215.114ZM91.2763 215.114L90.9873 215.056L91.5643 212.145L91.8243 212.202L91.2763 215.114ZM82.9733 215.114L82.7133 215.056L83.2623 212.145L83.5503 212.202L82.9733 215.114ZM74.7003 215.114L74.4113 215.056L74.9883 212.145L75.2483 212.202L74.7003 215.114ZM175.978 215.114L175.431 212.202L175.69 212.145L176.238 215.056L175.978 215.114ZM167.676 215.114L167.128 212.202L167.416 212.145L167.964 215.056L167.676 215.114ZM159.402 215.114L158.825 212.202L159.113 212.145L159.661 215.056L159.402 215.114ZM151.099 215.114L150.551 212.202L150.81 212.145L151.387 215.056L151.099 215.114ZM130.514 212.146L129.966 209.205L130.254 209.147L130.802 212.088L130.514 212.146ZM130.514 206.292L129.966 203.727L130.225 203.669L130.802 206.235L130.514 206.292Z" fill="#1D405C"/>
<g style="mix-blend-mode:multiply" opacity="0.24">
<path d="M131.83 115.918L139.576 104.878C139.734 104.659 139.844 104.41 139.9 104.147C139.957 103.883 139.958 103.611 139.904 103.347C139.85 103.083 139.743 102.833 139.588 102.612C139.433 102.392 139.234 102.206 139.003 102.066C138.934 102.023 138.863 101.993 138.792 101.956C131.827 107.121 124.2 111.329 116.115 114.466C116.795 115.671 117.783 116.673 118.978 117.37C120.172 118.067 121.531 118.433 122.914 118.432H126.995C127.944 118.433 128.879 118.205 129.72 117.767C130.562 117.329 131.286 116.695 131.83 115.918Z" fill="#F4F2F1"/>
</g>
<g clip-path="url(#clip1_995_2607)">
<rect x="100" y="68" width="43" height="60" fill="white"/>
<circle cx="141.5" cy="121.5" r="14.5" fill="#FF9277"/>
<path d="M116.474 60.9821C116.517 60.9818 116.56 60.9816 116.604 60.9813C116.745 60.9806 116.887 60.981 117.028 60.9813C117.131 60.981 117.233 60.9807 117.335 60.9803C117.611 60.9795 117.887 60.9795 118.164 60.9798C118.395 60.9799 118.626 60.9796 118.857 60.9793C119.403 60.9787 119.948 60.9788 120.494 60.9793C121.055 60.9798 121.617 60.9792 122.179 60.9779C122.662 60.9768 123.145 60.9765 123.629 60.9768C123.917 60.977 124.205 60.9769 124.493 60.976C124.764 60.9753 125.035 60.9755 125.307 60.9764C125.406 60.9766 125.505 60.9764 125.604 60.9759C126.439 60.972 127.105 61.0898 127.745 61.6744C128.259 62.2258 128.397 62.8406 128.388 63.5703C128.388 63.6329 128.388 63.6955 128.388 63.76C128.387 63.9247 128.386 64.0895 128.384 64.2542C128.383 64.423 128.382 64.5918 128.381 64.7606C128.38 65.0906 128.377 65.4205 128.374 65.7505C128.417 65.7503 128.417 65.7503 128.461 65.7502C130.161 65.7449 131.861 65.7408 133.561 65.7384C133.766 65.7381 133.97 65.7377 134.175 65.7374C134.236 65.7373 134.236 65.7373 134.298 65.7372C134.956 65.7362 135.613 65.7343 136.271 65.7322C136.947 65.7299 137.622 65.7286 138.298 65.7281C138.714 65.7278 139.131 65.7268 139.547 65.7248C139.833 65.7236 140.119 65.7232 140.405 65.7235C140.57 65.7237 140.735 65.7235 140.9 65.7222C142.049 65.7145 143.031 65.8543 143.893 66.6851C143.947 66.7397 143.947 66.7397 144.002 66.7955C144.038 66.8304 144.075 66.8654 144.113 66.9014C144.332 67.1246 144.492 67.359 144.634 67.6356C144.649 67.664 144.664 67.6925 144.679 67.7217C144.942 68.2641 145.028 68.8242 145.023 69.4204C145.024 69.4856 145.024 69.5509 145.024 69.6161C145.025 69.7939 145.025 69.9717 145.024 70.1495C145.024 70.3435 145.024 70.5374 145.025 70.7314C145.026 71.0709 145.026 71.4103 145.026 71.7498C145.025 72.2546 145.026 72.7593 145.026 73.2641C145.028 74.1133 145.028 74.9625 145.028 75.8118C145.028 76.6524 145.028 77.493 145.029 78.3336C145.029 78.3859 145.029 78.4382 145.029 78.4921C145.03 78.7577 145.03 79.0233 145.03 79.289C145.032 81.1695 145.033 83.0501 145.034 84.9306C145.034 86.7573 145.035 88.584 145.037 90.4107C145.037 90.4952 145.037 90.4952 145.037 90.5814C145.038 91.1471 145.038 91.7127 145.038 92.2784C145.039 93.4306 145.04 94.5829 145.041 95.7351C145.041 95.8146 145.041 95.8146 145.041 95.8957C145.044 99.4323 145.046 102.969 145.047 106.505C145.097 106.519 145.097 106.519 145.147 106.533C145.301 106.575 145.454 106.618 145.608 106.661C145.66 106.675 145.712 106.689 145.766 106.704C148.072 107.345 150.125 108.557 151.887 110.163C151.946 110.216 151.946 110.216 152.007 110.27C154.492 112.478 156.091 115.605 156.684 118.855C156.694 118.905 156.703 118.955 156.713 119.007C157.019 120.712 157.004 122.569 156.684 124.27C156.675 124.319 156.667 124.368 156.657 124.418C156.307 126.291 155.617 128.123 154.594 129.733C154.563 129.783 154.531 129.832 154.499 129.883C154.004 130.641 153.446 131.345 152.837 132.013C152.784 132.072 152.784 132.072 152.73 132.133C151.656 133.341 150.357 134.327 148.942 135.1C148.9 135.124 148.858 135.147 148.815 135.171C146.789 136.286 144.423 136.999 142.097 137.01C142.024 137.011 142.024 137.011 141.95 137.011C141.794 137.012 141.637 137.012 141.481 137.012C141.428 137.012 141.375 137.012 141.32 137.012C140.542 137.012 139.782 136.994 139.014 136.858C138.966 136.85 138.918 136.842 138.869 136.833C134.93 136.151 131.235 133.953 128.908 130.672C128.852 130.591 128.795 130.509 128.739 130.428C128.713 130.389 128.687 130.35 128.659 130.31C128.476 130.038 128.476 130.038 128.422 129.875C128.363 129.875 128.304 129.876 128.244 129.876C125.65 129.879 123.057 129.882 120.464 129.883C120.424 129.883 120.385 129.884 120.345 129.884C119.491 129.884 118.637 129.885 117.784 129.885C117.365 129.885 116.947 129.886 116.528 129.886C116.486 129.886 116.445 129.886 116.402 129.886C115.052 129.887 113.702 129.888 112.353 129.89C110.965 129.892 109.578 129.893 108.191 129.893C107.995 129.893 107.799 129.893 107.603 129.893C107.545 129.893 107.545 129.893 107.486 129.893C106.865 129.894 106.245 129.895 105.624 129.896C105 129.897 104.376 129.897 103.752 129.897C103.381 129.897 103.011 129.897 102.64 129.898C102.363 129.899 102.086 129.899 101.809 129.898C101.697 129.898 101.585 129.899 101.473 129.899C100.732 129.903 100.062 129.864 99.3904 129.516C99.3435 129.492 99.3435 129.492 99.2957 129.468C98.9649 129.29 98.708 129.052 98.4493 128.783C98.4177 128.752 98.3862 128.721 98.3537 128.688C97.9384 128.253 97.6877 127.699 97.5468 127.12C97.5342 127.07 97.5342 127.07 97.5214 127.018C97.4921 126.839 97.4927 126.662 97.4931 126.481C97.493 126.441 97.4929 126.4 97.4928 126.358C97.4926 126.221 97.4927 126.084 97.4928 125.947C97.4927 125.848 97.4925 125.749 97.4924 125.649C97.492 125.375 97.492 125.1 97.492 124.826C97.492 124.528 97.4916 124.23 97.4913 123.932C97.4909 123.409 97.4906 122.886 97.4904 122.363C97.4902 121.802 97.49 121.241 97.4896 120.68C97.4895 120.644 97.4895 120.609 97.4895 120.572C97.4894 120.428 97.4893 120.284 97.4892 120.14C97.4879 118.39 97.4872 116.641 97.4866 114.892C97.4864 114.324 97.4861 113.757 97.4859 113.19C97.4847 110.218 97.4837 107.247 97.4831 104.276C97.4831 104.058 97.483 103.84 97.483 103.623C97.483 103.58 97.483 103.537 97.4829 103.492C97.4829 103.055 97.4828 102.618 97.4827 102.18C97.4827 102.093 97.4826 102.005 97.4826 101.917C97.4821 99.1024 97.4806 96.2874 97.4787 93.4724C97.4772 91.4499 97.4759 89.4273 97.4755 87.4048C97.4755 87.3632 97.4754 87.3216 97.4754 87.2788C97.4752 86.3655 97.4751 85.4523 97.475 84.5391C97.475 84.1716 97.4749 83.8041 97.4749 83.4367C97.4749 83.3965 97.4749 83.3562 97.4749 83.3148C97.4747 82.0196 97.4739 80.7244 97.4726 79.4292C97.4713 78.1245 97.4708 76.8197 97.4714 75.5149C97.4714 75.3345 97.4715 75.1541 97.4715 74.9737C97.4716 74.9383 97.4716 74.903 97.4716 74.8665C97.4718 74.3071 97.4711 73.7478 97.4702 73.1884C97.4692 72.638 97.4692 72.0876 97.4699 71.5372C97.4703 71.2429 97.4704 70.9486 97.4694 70.6543C97.4684 70.3864 97.4686 70.1184 97.4696 69.8504C97.4698 69.7543 97.4696 69.6582 97.469 69.5621C97.4623 68.5281 97.6964 67.6223 98.4339 66.8573C98.4703 66.8212 98.5067 66.7851 98.5443 66.748C98.5792 66.7114 98.6142 66.6749 98.6502 66.6372C98.8744 66.4168 99.1092 66.2577 99.3874 66.1156C99.4162 66.1007 99.445 66.0859 99.4747 66.0705C99.5747 66.0223 99.6761 65.9814 99.7793 65.9405C99.8188 65.9242 99.8582 65.908 99.8989 65.8912C100.477 65.6899 101.073 65.7247 101.678 65.7284C101.845 65.7293 102.013 65.729 102.18 65.7288C102.469 65.7287 102.759 65.7293 103.048 65.7304C103.466 65.7319 103.885 65.7324 104.303 65.7327C104.982 65.7331 105.66 65.7343 106.339 65.7361C106.998 65.7379 107.657 65.7392 108.316 65.74C108.377 65.7401 108.377 65.7401 108.439 65.7402C108.644 65.7404 108.848 65.7407 109.052 65.7409C110.743 65.7429 112.433 65.7462 114.124 65.7505C114.124 65.716 114.123 65.6816 114.123 65.6461C114.119 65.3192 114.116 64.9922 114.114 64.6652C114.113 64.4972 114.112 64.3292 114.11 64.1611C114.107 63.9673 114.107 63.7734 114.106 63.5796C114.105 63.5202 114.104 63.4608 114.103 63.3996C114.103 62.7134 114.334 62.1378 114.798 61.6299C115.265 61.1945 115.843 60.9774 116.474 60.9821ZM116.499 63.3755C116.486 64.4247 116.472 65.474 116.458 66.555C116.452 66.8859 116.446 67.2168 116.439 67.5577C116.437 67.8552 116.437 67.8552 116.436 68.1527C116.435 68.2849 116.433 68.4169 116.429 68.5491C116.376 69.2455 116.376 69.2455 116.562 69.8871C116.736 70.0613 116.935 70.1367 117.164 70.2155C117.23 70.2529 117.295 70.292 117.358 70.334C117.41 70.3645 117.462 70.3949 117.515 70.4263C117.559 70.4521 117.559 70.4521 117.603 70.4785C117.665 70.5148 117.726 70.551 117.788 70.5872C117.954 70.6849 118.12 70.7831 118.286 70.8812C118.319 70.9011 118.353 70.921 118.387 70.9414C118.689 71.1202 118.989 71.3014 119.288 71.4837C119.37 71.5333 119.451 71.5827 119.533 71.6321C119.779 71.7814 120.024 71.9314 120.268 72.0846C120.351 72.1366 120.434 72.1882 120.518 72.2397C120.621 72.3038 120.724 72.3686 120.826 72.4341C120.872 72.4624 120.918 72.4907 120.966 72.5198C121.006 72.545 121.046 72.5702 121.087 72.5962C121.202 72.6504 121.202 72.6504 121.322 72.6053C121.433 72.5465 121.542 72.4877 121.649 72.4237C121.71 72.3879 121.71 72.3879 121.771 72.3514C121.815 72.3255 121.858 72.2995 121.902 72.2728C121.948 72.2454 121.995 72.218 122.042 72.1898C122.427 71.9606 122.811 71.7299 123.195 71.4989C123.481 71.3266 123.769 71.1555 124.057 70.9855C124.123 70.946 124.19 70.9065 124.257 70.867C124.354 70.8095 124.452 70.7521 124.549 70.6949C124.594 70.6682 124.594 70.6682 124.641 70.6411C124.669 70.6245 124.697 70.6079 124.727 70.5908C124.787 70.5549 124.847 70.5184 124.906 70.481C125.067 70.3796 125.224 70.2951 125.402 70.2255C125.642 70.1204 125.845 70.0052 125.999 69.788C126.139 69.3598 126.096 68.881 126.081 68.4357C126.076 68.275 126.076 68.1145 126.076 67.9538C126.071 67.4855 126.06 67.0173 126.05 66.5491C126.033 65.5018 126.016 64.4545 125.999 63.3755C122.864 63.3755 119.729 63.3755 116.499 63.3755ZM100.207 68.5055C99.9049 68.8543 99.8596 69.2849 99.8624 69.7311C99.8622 69.7711 99.8621 69.8112 99.862 69.8525C99.8616 69.9865 99.862 70.1205 99.8623 70.2546C99.8622 70.3522 99.8621 70.4497 99.8619 70.5473C99.8615 70.8163 99.8618 71.0852 99.8621 71.3541C99.8623 71.6464 99.862 71.9387 99.8618 72.231C99.8614 72.7435 99.8614 73.256 99.8617 73.7686C99.8619 74.3185 99.862 74.8684 99.8618 75.4184C99.8618 75.4531 99.8618 75.4879 99.8618 75.5236C99.8617 75.6651 99.8617 75.8066 99.8616 75.9481C99.8611 77.2658 99.8611 78.5835 99.8613 79.9013C99.8613 79.9403 99.8613 79.9794 99.8614 80.0196C99.8614 80.0587 99.8614 80.0978 99.8614 80.1381C99.8616 81.3292 99.8617 82.5202 99.8616 83.7113C99.8616 83.791 99.8616 83.8707 99.8615 83.9504C99.8615 84.2708 99.8615 84.5912 99.8615 84.9116C99.8614 85.8072 99.8613 86.7028 99.8613 87.5985C99.8613 87.6393 99.8613 87.6801 99.8613 87.7221C99.8612 89.0219 99.8614 90.3217 99.8616 91.6216C99.8616 91.6637 99.8616 91.7059 99.8616 91.7493C99.8617 92.4341 99.8618 93.1188 99.8619 93.8036C99.8624 96.5194 99.8624 99.2353 99.8619 101.951C99.8618 102.636 99.8617 103.32 99.8616 104.004C99.8616 104.046 99.8615 104.089 99.8615 104.132C99.8613 105.431 99.8612 106.729 99.8613 108.027C99.8613 108.068 99.8613 108.109 99.8613 108.151C99.8613 109.046 99.8614 109.94 99.8615 110.835C99.8615 111.155 99.8615 111.475 99.8616 111.795C99.8616 111.875 99.8616 111.954 99.8616 112.034C99.8617 113.225 99.8616 114.416 99.8614 115.606C99.8613 115.645 99.8613 115.684 99.8613 115.725C99.8613 115.764 99.8613 115.803 99.8613 115.843C99.861 117.157 99.8611 118.471 99.8616 119.784C99.8617 119.925 99.8617 120.066 99.8618 120.208C99.8618 120.242 99.8618 120.277 99.8618 120.312C99.862 120.861 99.8619 121.409 99.8616 121.958C99.8614 122.497 99.8615 123.036 99.8619 123.575C99.8621 123.864 99.8622 124.152 99.8619 124.441C99.8616 124.703 99.8617 124.965 99.8622 125.227C99.8623 125.322 99.8622 125.416 99.862 125.511C99.8617 125.639 99.8619 125.767 99.8624 125.895C99.8621 125.931 99.8619 125.968 99.8617 126.005C99.8647 126.447 99.9495 126.835 100.254 127.168C100.639 127.466 100.985 127.508 101.457 127.506C101.502 127.506 101.546 127.506 101.592 127.506C101.741 127.507 101.891 127.506 102.04 127.506C102.148 127.506 102.256 127.506 102.364 127.506C102.662 127.506 102.959 127.506 103.256 127.506C103.544 127.506 103.831 127.506 104.118 127.506C104.707 127.506 105.295 127.506 105.883 127.505C106.465 127.505 107.047 127.505 107.63 127.505C107.666 127.505 107.702 127.505 107.739 127.505C107.923 127.505 108.107 127.505 108.291 127.505C109.593 127.505 110.895 127.504 112.198 127.504C113.463 127.504 114.728 127.503 115.993 127.503C116.032 127.503 116.071 127.503 116.111 127.503C116.503 127.503 116.895 127.503 117.286 127.503C118.084 127.503 118.882 127.503 119.679 127.502C119.716 127.502 119.753 127.502 119.79 127.502C122.24 127.502 124.69 127.501 127.139 127.5C127.117 127.424 127.094 127.348 127.071 127.272C127.059 127.23 127.046 127.188 127.033 127.144C126.992 127.009 126.947 126.875 126.899 126.742C126.4 125.306 126.047 123.79 126.035 122.263C126.035 122.213 126.035 122.163 126.034 122.111C126.026 121.011 126.03 119.939 126.237 118.855C126.247 118.801 126.257 118.747 126.268 118.691C126.456 117.715 126.721 116.741 127.101 115.821C127.145 115.724 127.145 115.724 127.139 115.625C127.107 115.625 127.075 115.625 127.042 115.625C126.704 115.624 126.366 115.622 126.029 115.618C125.903 115.617 125.777 115.616 125.652 115.616C125.47 115.616 125.289 115.614 125.108 115.612C125.052 115.612 124.996 115.612 124.939 115.612C124.578 115.606 124.307 115.543 124.004 115.34C123.897 115.229 123.897 115.229 123.835 115.121C123.813 115.085 123.792 115.049 123.77 115.012C123.61 114.698 123.618 114.301 123.71 113.966C123.845 113.661 124.042 113.495 124.337 113.345C124.491 113.294 124.606 113.291 124.769 113.29C124.828 113.289 124.888 113.288 124.949 113.288C125.014 113.287 125.08 113.287 125.145 113.287C125.194 113.286 125.194 113.286 125.245 113.286C125.419 113.285 125.594 113.284 125.768 113.284C125.947 113.283 126.127 113.282 126.306 113.28C126.445 113.279 126.584 113.278 126.722 113.278C126.788 113.278 126.854 113.277 126.92 113.276C127.358 113.271 127.681 113.281 128.012 113.595C128.038 113.622 128.063 113.65 128.089 113.678C128.121 113.678 128.152 113.678 128.184 113.678C128.264 113.554 128.339 113.429 128.413 113.301C128.684 112.845 128.993 112.429 129.324 112.015C129.363 111.967 129.401 111.919 129.44 111.869C129.653 111.604 129.878 111.351 130.11 111.103C130.224 111.004 130.224 111.004 130.274 110.875C130.232 110.875 130.19 110.875 130.146 110.875C127.643 110.875 125.141 110.873 122.638 110.869C122.337 110.869 122.037 110.869 121.736 110.868C121.647 110.868 121.647 110.868 121.555 110.868C120.586 110.867 119.617 110.866 118.649 110.866C117.655 110.866 116.661 110.865 115.667 110.863C115.053 110.862 114.44 110.862 113.827 110.862C113.406 110.862 112.985 110.862 112.565 110.86C112.322 110.86 112.08 110.859 111.837 110.86C111.615 110.861 111.392 110.86 111.17 110.859C111.09 110.858 111.009 110.859 110.929 110.859C110.497 110.862 110.12 110.854 109.754 110.59C109.647 110.479 109.647 110.479 109.585 110.371C109.563 110.335 109.542 110.299 109.52 110.262C109.36 109.948 109.368 109.551 109.46 109.216C109.595 108.911 109.792 108.745 110.087 108.595C110.257 108.539 110.412 108.541 110.59 108.542C110.627 108.541 110.664 108.541 110.703 108.541C110.829 108.541 110.955 108.541 111.081 108.541C111.171 108.541 111.262 108.541 111.353 108.54C111.603 108.54 111.853 108.54 112.104 108.54C112.373 108.539 112.643 108.539 112.912 108.539C113.564 108.538 114.215 108.537 114.866 108.537C115.173 108.537 115.48 108.536 115.786 108.536C116.805 108.535 117.824 108.535 118.842 108.534C118.908 108.534 118.974 108.534 119.04 108.534C119.073 108.534 119.105 108.534 119.139 108.534C119.305 108.534 119.47 108.534 119.636 108.534C119.669 108.534 119.701 108.534 119.735 108.534C120.801 108.534 121.866 108.532 122.931 108.531C124.058 108.529 125.184 108.528 126.31 108.528C126.924 108.528 127.538 108.528 128.152 108.526C128.675 108.525 129.197 108.525 129.72 108.525C129.987 108.526 130.254 108.526 130.521 108.525C130.765 108.524 131.009 108.524 131.253 108.525C131.342 108.525 131.43 108.525 131.518 108.524C131.639 108.523 131.759 108.524 131.879 108.524C131.913 108.524 131.947 108.523 131.983 108.523C132.214 108.526 132.367 108.583 132.561 108.697C132.662 108.751 132.662 108.751 132.839 108.738C132.937 108.692 132.937 108.692 133.034 108.625C133.073 108.6 133.111 108.575 133.15 108.55C133.192 108.523 133.233 108.496 133.276 108.468C134.939 107.415 136.789 106.699 138.729 106.363C138.78 106.354 138.831 106.344 138.883 106.335C139.747 106.181 140.59 106.162 141.464 106.168C141.577 106.168 141.69 106.169 141.803 106.169C142.077 106.17 142.351 106.171 142.624 106.173C142.626 102.665 142.627 99.1568 142.628 95.6487C142.628 95.5968 142.628 95.5449 142.628 95.4914C142.629 94.3635 142.629 93.2355 142.629 92.1075C142.629 91.5544 142.629 91.0013 142.63 90.4482C142.63 90.3931 142.63 90.3381 142.63 90.2813C142.63 88.4966 142.631 86.7118 142.632 84.927C142.632 83.0932 142.633 81.2594 142.633 79.4256C142.633 79.1667 142.633 78.9078 142.633 78.649C142.633 78.598 142.633 78.547 142.633 78.4946C142.633 77.6737 142.634 76.8528 142.634 76.0319C142.635 75.207 142.635 74.3821 142.635 73.5573C142.635 73.0669 142.635 72.5766 142.636 72.0863C142.636 71.7589 142.636 71.4315 142.636 71.1041C142.636 70.9175 142.636 70.7309 142.636 70.5442C142.637 70.3744 142.636 70.2045 142.636 70.0347C142.636 69.9449 142.636 69.8552 142.637 69.7654C142.635 69.305 142.605 68.8674 142.292 68.5055C141.875 68.1403 141.424 68.1111 140.889 68.1141C140.836 68.114 140.782 68.1139 140.727 68.1138C140.548 68.1137 140.368 68.1142 140.189 68.1147C140.06 68.1148 139.932 68.1147 139.803 68.1147C139.526 68.1146 139.249 68.1149 138.972 68.1154C138.572 68.1162 138.172 68.1165 137.772 68.1166C137.122 68.1168 136.473 68.1174 135.824 68.1183C135.193 68.1192 134.562 68.1199 133.932 68.1203C133.893 68.1203 133.854 68.1203 133.814 68.1203C133.619 68.1205 133.423 68.1206 133.228 68.1207C131.61 68.1217 129.992 68.1234 128.374 68.1255C128.374 68.1646 128.374 68.1646 128.374 68.2046C128.372 68.479 128.368 68.7533 128.364 69.0277C128.363 69.1298 128.362 69.2319 128.361 69.3339C128.353 70.584 128.353 70.584 127.985 71.1536C127.949 71.212 127.949 71.212 127.912 71.2716C127.596 71.6571 127.198 71.9053 126.771 72.1511C126.636 72.229 126.501 72.3081 126.366 72.387C126.297 72.4276 126.228 72.4681 126.158 72.5086C125.834 72.6982 125.513 72.8931 125.192 73.0892C124.644 73.423 124.094 73.7515 123.542 74.0781C123.512 74.0958 123.482 74.1135 123.452 74.1318C123.392 74.1668 123.333 74.2019 123.274 74.2369C123.12 74.3279 122.967 74.4198 122.814 74.5129C122.782 74.5322 122.75 74.5515 122.718 74.5714C122.657 74.6081 122.597 74.645 122.537 74.682C122.125 74.9328 121.727 75.0278 121.249 75.0367C121.216 75.0376 121.183 75.0385 121.149 75.0394C120.555 75.0323 120.054 74.7596 119.56 74.4578C119.5 74.4218 119.44 74.3858 119.38 74.3498C119.225 74.2572 119.071 74.1638 118.916 74.07C118.83 74.0177 118.744 73.9655 118.658 73.9134C118.441 73.7819 118.224 73.6503 118.007 73.518C117.612 73.2766 117.213 73.0391 116.814 72.803C116.623 72.6897 116.432 72.5759 116.24 72.4621C116.1 72.3788 115.96 72.2958 115.82 72.2133C115.039 71.7557 114.449 71.331 114.192 70.4111C114.151 70.2096 114.155 70.005 114.152 69.8C114.151 69.728 114.151 69.728 114.149 69.6545C114.147 69.5021 114.144 69.3496 114.142 69.1972C114.14 69.0934 114.138 68.9897 114.137 68.8859C114.132 68.6325 114.128 68.379 114.124 68.1255C112.467 68.1233 110.811 68.1216 109.154 68.1206C108.958 68.1205 108.763 68.1204 108.567 68.1203C108.508 68.1202 108.508 68.1202 108.449 68.1202C107.818 68.1198 107.188 68.119 106.557 68.1181C105.91 68.1173 105.263 68.1167 104.616 68.1165C104.217 68.1164 103.818 68.116 103.419 68.1152C103.145 68.1147 102.871 68.1146 102.597 68.1147C102.439 68.1148 102.281 68.1146 102.123 68.1142C101.952 68.1137 101.781 68.1138 101.609 68.1141C101.535 68.1136 101.535 68.1136 101.459 68.1132C100.975 68.1152 100.58 68.1788 100.207 68.5055ZM139.204 108.69C139.162 108.698 139.121 108.705 139.078 108.712C136.856 109.097 134.697 110.126 133.009 111.617C132.956 111.664 132.902 111.711 132.848 111.757C132.259 112.264 131.695 112.821 131.224 113.44C131.188 113.486 131.151 113.531 131.114 113.577C129.792 115.235 128.94 117.251 128.564 119.33C128.557 119.371 128.549 119.412 128.541 119.454C128.286 120.835 128.304 122.416 128.564 123.795C128.571 123.837 128.579 123.879 128.586 123.922C129.001 126.319 130.161 128.596 131.82 130.367C131.919 130.474 132.013 130.583 132.106 130.695C132.144 130.738 132.182 130.781 132.222 130.825C132.253 130.825 132.284 130.825 132.317 130.825C132.317 130.857 132.317 130.888 132.317 130.92C132.386 130.992 132.386 130.992 132.477 131.066C132.625 131.191 132.769 131.32 132.911 131.452C133.5 131.981 134.158 132.412 134.834 132.82C134.866 132.84 134.897 132.859 134.929 132.878C137.682 134.551 141.215 135.028 144.333 134.295C146.272 133.819 148.051 132.986 149.607 131.728C149.632 131.708 149.657 131.688 149.683 131.667C150.401 131.086 151.094 130.425 151.649 129.685C151.693 129.63 151.736 129.575 151.779 129.52C152.689 128.353 153.359 127.046 153.834 125.648C153.848 125.608 153.862 125.567 153.876 125.526C154.307 124.246 154.472 122.924 154.467 121.581C154.467 121.532 154.466 121.484 154.466 121.434C154.464 120.74 154.446 120.061 154.309 119.378C154.301 119.334 154.292 119.289 154.284 119.244C153.7 116.204 152.074 113.225 149.559 111.35C149.493 111.3 149.427 111.249 149.361 111.198C147.72 109.949 145.841 109.12 143.818 108.723C143.765 108.713 143.765 108.713 143.71 108.702C142.946 108.563 142.179 108.53 141.404 108.533C141.336 108.533 141.336 108.533 141.265 108.533C140.569 108.536 139.89 108.563 139.204 108.69Z" fill="#1D405C"/>
<path d="M123.244 77.8153C123.28 77.8237 123.315 77.8321 123.351 77.8407C125.44 78.3474 127.258 79.7616 128.388 81.5706C128.798 82.2492 129.109 82.9692 129.315 83.735C129.324 83.7672 129.333 83.7994 129.342 83.8326C129.522 84.5515 129.584 85.2529 129.583 85.9914C129.583 86.0811 129.583 86.1707 129.583 86.2604C129.584 86.4471 129.584 86.6337 129.583 86.8204C129.583 87.0092 129.583 87.198 129.584 87.3868C129.598 89.7788 129.156 91.8016 127.899 93.8703C127.943 93.8889 127.943 93.8889 127.988 93.9079C128.585 94.163 129.177 94.4217 129.752 94.7253C129.785 94.7426 129.818 94.76 129.852 94.7779C131.03 95.3975 132.178 96.2118 133.104 97.1745C133.181 97.2543 133.181 97.2543 133.314 97.3586C133.456 97.4793 133.57 97.6049 133.69 97.7462C133.785 97.8557 133.884 97.961 133.985 98.0663C134.996 99.135 136.732 101.19 136.705 102.725C136.674 103.023 136.573 103.25 136.357 103.459C135.984 103.753 135.636 103.799 135.167 103.75C134.755 103.632 134.545 103.378 134.34 103.014C134.272 102.883 134.205 102.751 134.14 102.619C133.731 101.819 133.252 101.084 132.697 100.378C132.66 100.331 132.624 100.284 132.586 100.236C132.002 99.5063 131.345 98.8158 130.607 98.2403C130.56 98.2028 130.513 98.1653 130.465 98.1267C129.359 97.2468 128.098 96.577 126.762 96.1206C126.689 96.0953 126.689 96.0953 126.615 96.0695C126.569 96.0544 126.523 96.0393 126.476 96.0237C126.436 96.0103 126.395 95.9968 126.353 95.983C126.219 95.9567 126.131 95.9689 125.999 96.0078C125.881 96.0911 125.881 96.0911 125.765 96.1978C124.502 97.2646 122.921 97.8233 121.276 97.8247C121.225 97.8247 121.225 97.8247 121.173 97.8248C120.662 97.824 120.179 97.7999 119.682 97.6703C119.65 97.6624 119.618 97.6545 119.585 97.6463C118.505 97.3769 117.408 96.855 116.606 96.0731C116.482 95.9664 116.462 95.96 116.287 95.9655C116.022 96.0085 115.774 96.1001 115.523 96.1918C115.471 96.2108 115.419 96.2297 115.365 96.2492C114.173 96.6942 113.078 97.3069 112.082 98.0978C112.035 98.1349 111.987 98.172 111.939 98.2102C111.224 98.7836 110.56 99.4209 109.992 100.14C109.947 100.195 109.902 100.249 109.857 100.303C109.211 101.085 108.675 101.962 108.222 102.869C108.029 103.256 107.859 103.517 107.459 103.708C107.123 103.82 106.728 103.8 106.406 103.655C106.104 103.481 105.924 103.222 105.812 102.895C105.607 101.929 106.48 100.835 106.983 100.06C107.486 99.2952 108.053 98.5742 108.676 97.9041C108.795 97.7753 108.911 97.6445 109.027 97.5129C109.178 97.3446 109.335 97.193 109.508 97.0474C109.632 96.9402 109.751 96.8272 109.87 96.7143C110.722 95.9259 111.72 95.2633 112.747 94.7253C112.778 94.709 112.809 94.6928 112.841 94.676C113.307 94.4336 113.784 94.2187 114.267 94.0128C114.33 93.9859 114.392 93.959 114.455 93.9321C114.503 93.9117 114.55 93.8913 114.599 93.8703C114.584 93.845 114.569 93.8198 114.554 93.7938C113.662 92.2872 112.932 90.5849 112.929 88.8028C112.929 88.7634 112.929 88.724 112.929 88.6834C112.928 88.5541 112.928 88.4248 112.927 88.2955C112.927 88.2286 112.927 88.2286 112.927 88.1603C112.926 87.9236 112.926 87.687 112.925 87.4503C112.925 87.2084 112.924 86.9666 112.923 86.7247C112.922 86.5366 112.922 86.3484 112.922 86.1602C112.921 86.0712 112.921 85.9822 112.92 85.8932C112.915 85.1272 112.985 84.3773 113.204 83.64C113.216 83.5992 113.228 83.5584 113.24 83.5163C113.868 81.463 115.309 79.6302 117.212 78.6137C117.4 78.5168 117.59 78.4264 117.782 78.3378C117.837 78.3119 117.892 78.286 117.949 78.2593C118.374 78.0684 118.803 77.9266 119.254 77.8153C119.292 77.8058 119.329 77.7964 119.368 77.7866C120.599 77.4896 122.018 77.5086 123.244 77.8153ZM117.117 81.7103C117.081 81.7429 117.046 81.7754 117.009 81.809C115.877 82.8811 115.368 84.4124 115.312 85.9378C115.304 86.2739 115.303 86.61 115.303 86.9462C115.303 87.0999 115.302 87.2536 115.301 87.4073C115.299 88.3556 115.331 89.2974 115.597 90.2128C115.622 90.2992 115.622 90.2992 115.647 90.3874C115.947 91.3498 116.41 92.2162 117.022 93.0153C117.07 93.0781 117.07 93.0781 117.119 93.1422C117.934 94.1706 118.936 94.9321 120.204 95.2953C120.243 95.3064 120.281 95.3176 120.321 95.3291C121.466 95.6211 122.627 95.3007 123.624 94.7253C124.067 94.4595 124.442 94.1317 124.812 93.7753C124.842 93.7477 124.872 93.7201 124.903 93.6916C126.338 92.3387 127.114 90.2459 127.187 88.3128C127.195 87.9746 127.196 87.6364 127.196 87.2981C127.196 87.1443 127.197 86.9906 127.198 86.8368C127.199 86.3457 127.189 85.8586 127.145 85.3693C127.142 85.328 127.138 85.2867 127.134 85.2442C126.981 83.7032 126.144 82.2961 124.968 81.3093C124.301 80.7784 123.54 80.4166 122.722 80.1903C122.665 80.1741 122.608 80.158 122.549 80.1413C120.562 79.6774 118.568 80.34 117.117 81.7103Z" fill="#1D405C"/>
<path d="M136.391 115.314C136.484 115.311 136.484 115.311 136.58 115.308C137.033 115.347 137.389 115.73 137.691 116.037C137.731 116.078 137.771 116.118 137.813 116.159C137.922 116.269 138.031 116.379 138.14 116.489C138.254 116.604 138.369 116.719 138.484 116.834C138.7 117.051 138.916 117.269 139.132 117.487C139.378 117.735 139.625 117.982 139.871 118.23C140.378 118.739 140.884 119.248 141.39 119.758C141.54 119.692 141.64 119.614 141.755 119.498C141.789 119.464 141.823 119.43 141.858 119.395C141.895 119.357 141.932 119.32 141.97 119.281C142.009 119.241 142.048 119.202 142.088 119.161C142.196 119.053 142.303 118.945 142.41 118.836C142.522 118.723 142.635 118.609 142.748 118.496C143.132 118.11 143.515 117.723 143.898 117.336C144.109 117.122 144.321 116.909 144.533 116.695C144.646 116.583 144.757 116.47 144.869 116.357C144.994 116.23 145.119 116.104 145.244 115.978C145.299 115.923 145.299 115.923 145.355 115.866C145.615 115.606 145.905 115.347 146.285 115.309C146.711 115.313 147.032 115.344 147.353 115.647C147.601 115.922 147.706 116.211 147.707 116.575C147.664 117.119 147.29 117.489 146.92 117.854C146.86 117.914 146.86 117.914 146.799 117.975C146.668 118.106 146.537 118.236 146.406 118.366C146.315 118.457 146.224 118.548 146.132 118.639C145.918 118.853 145.703 119.067 145.487 119.281C145.242 119.524 144.998 119.768 144.753 120.012C144.25 120.514 143.746 121.015 143.242 121.515C143.309 121.665 143.386 121.765 143.502 121.88C143.536 121.914 143.571 121.948 143.606 121.983C143.643 122.02 143.681 122.057 143.719 122.094C143.759 122.134 143.798 122.173 143.839 122.213C143.925 122.298 144.011 122.383 144.097 122.468C144.233 122.602 144.369 122.737 144.505 122.871C144.891 123.255 145.277 123.638 145.664 124.02C145.878 124.231 146.092 124.442 146.305 124.654C146.418 124.767 146.53 124.878 146.644 124.99C146.77 125.114 146.896 125.239 147.022 125.365C147.059 125.401 147.096 125.437 147.135 125.474C147.464 125.805 147.7 126.169 147.707 126.645C147.677 126.952 147.579 127.22 147.375 127.453C147.087 127.682 146.864 127.796 146.496 127.806C146.448 127.81 146.448 127.81 146.4 127.813C145.998 127.822 145.685 127.575 145.403 127.309C145.33 127.236 145.257 127.163 145.184 127.089C145.144 127.048 145.103 127.008 145.062 126.966C144.952 126.857 144.844 126.747 144.735 126.637C144.621 126.522 144.506 126.407 144.391 126.292C144.175 126.075 143.959 125.857 143.743 125.639C143.497 125.391 143.25 125.144 143.003 124.896C142.497 124.387 141.991 123.878 141.485 123.368C141.335 123.434 141.235 123.512 141.12 123.628C141.086 123.662 141.052 123.696 141.017 123.731C140.98 123.769 140.943 123.806 140.905 123.845C140.846 123.904 140.846 123.904 140.786 123.965C140.679 124.073 140.572 124.181 140.465 124.29C140.352 124.403 140.24 124.517 140.127 124.63C139.743 125.016 139.36 125.403 138.977 125.79C138.765 126.004 138.554 126.217 138.341 126.43C138.229 126.543 138.117 126.656 138.006 126.769C137.881 126.896 137.756 127.022 137.63 127.148C137.594 127.185 137.558 127.222 137.52 127.26C137.26 127.52 136.97 127.776 136.591 127.819C136.178 127.817 135.872 127.779 135.547 127.5C135.432 127.382 135.432 127.382 135.357 127.263C135.318 127.2 135.318 127.2 135.277 127.135C135.145 126.802 135.127 126.457 135.262 126.123C135.447 125.795 135.688 125.535 135.955 125.272C135.995 125.232 136.035 125.192 136.076 125.151C136.206 125.02 136.338 124.89 136.469 124.76C136.56 124.669 136.651 124.578 136.742 124.487C136.957 124.273 137.172 124.059 137.387 123.845C137.633 123.602 137.877 123.358 138.122 123.114C138.625 122.612 139.129 122.111 139.632 121.61C139.566 121.461 139.489 121.36 139.372 121.245C139.338 121.211 139.304 121.177 139.269 121.142C139.231 121.105 139.194 121.069 139.155 121.031C139.116 120.992 139.076 120.952 139.036 120.912C138.928 120.805 138.819 120.697 138.711 120.59C138.597 120.478 138.484 120.365 138.37 120.252C137.984 119.869 137.597 119.485 137.21 119.103C136.997 118.891 136.783 118.679 136.57 118.467C136.457 118.355 136.344 118.243 136.231 118.131C136.105 118.007 135.979 117.881 135.853 117.756C135.816 117.72 135.778 117.683 135.74 117.646C135.423 117.327 135.188 117.007 135.164 116.548C135.175 116.167 135.315 115.852 135.589 115.59C135.853 115.4 136.065 115.315 136.391 115.314Z" fill="#1D405C"/>
<path d="M115.212 113.237C115.257 113.237 115.302 113.236 115.349 113.236C115.398 113.236 115.447 113.236 115.497 113.236C115.549 113.235 115.601 113.235 115.655 113.235C115.827 113.233 115.999 113.233 116.172 113.233C116.292 113.232 116.411 113.232 116.531 113.231C116.783 113.231 117.034 113.23 117.286 113.23C117.576 113.23 117.865 113.229 118.155 113.227C118.435 113.225 118.715 113.224 118.994 113.224C119.113 113.224 119.231 113.223 119.35 113.222C119.516 113.221 119.682 113.221 119.848 113.222C119.897 113.221 119.945 113.22 119.995 113.22C120.331 113.223 120.592 113.296 120.871 113.488C121.192 113.826 121.276 114.138 121.268 114.6C121.237 114.898 121.137 115.125 120.921 115.334C120.689 115.518 120.466 115.637 120.165 115.638C120.119 115.639 120.074 115.639 120.028 115.64C119.979 115.64 119.93 115.64 119.879 115.64C119.827 115.64 119.775 115.641 119.721 115.641C119.549 115.642 119.377 115.643 119.205 115.643C119.085 115.643 118.965 115.644 118.845 115.644C118.593 115.645 118.342 115.645 118.09 115.646C117.8 115.646 117.511 115.647 117.221 115.649C116.941 115.651 116.662 115.652 116.382 115.652C116.263 115.652 116.145 115.652 116.026 115.653C115.86 115.655 115.694 115.654 115.528 115.654C115.479 115.655 115.431 115.655 115.381 115.656C115.045 115.653 114.784 115.58 114.506 115.388C114.184 115.05 114.1 114.738 114.108 114.275C114.139 113.978 114.239 113.75 114.455 113.541C114.688 113.358 114.91 113.239 115.212 113.237Z" fill="#1D405C"/>
<path d="M121.847 120.447C122.123 120.619 122.335 120.875 122.438 121.183C122.45 121.328 122.45 121.328 122.451 121.491C122.452 121.553 122.453 121.615 122.453 121.678C122.453 121.745 122.454 121.812 122.454 121.878C122.454 121.947 122.454 122.016 122.455 122.085C122.455 122.23 122.455 122.375 122.455 122.519C122.455 122.704 122.457 122.888 122.458 123.073C122.459 123.215 122.459 123.358 122.459 123.5C122.459 123.568 122.46 123.636 122.461 123.704C122.465 124.144 122.454 124.462 122.154 124.804C122.123 124.83 122.092 124.855 122.061 124.882C122.03 124.908 121.999 124.934 121.967 124.962C121.637 125.189 121.254 125.155 120.87 125.125C120.553 125.049 120.339 124.818 120.158 124.555C120.067 124.368 120.05 124.216 120.049 124.009C120.048 123.948 120.048 123.886 120.047 123.823C120.047 123.756 120.047 123.689 120.047 123.622C120.046 123.553 120.046 123.484 120.046 123.415C120.045 123.27 120.045 123.126 120.045 122.981C120.045 122.797 120.044 122.612 120.042 122.428C120.041 122.285 120.041 122.143 120.041 122C120.041 121.932 120.04 121.864 120.04 121.796C120.035 121.357 120.046 121.038 120.346 120.696C120.377 120.671 120.408 120.645 120.44 120.619C120.47 120.592 120.501 120.566 120.533 120.539C120.874 120.304 121.467 120.277 121.847 120.447Z" fill="#1D405C"/>
<path d="M115.909 120.447C116.186 120.619 116.397 120.875 116.5 121.183C116.513 121.328 116.513 121.328 116.514 121.491C116.515 121.553 116.515 121.615 116.516 121.678C116.516 121.745 116.516 121.812 116.516 121.878C116.516 121.947 116.517 122.016 116.517 122.085C116.518 122.23 116.518 122.375 116.518 122.519C116.518 122.704 116.519 122.888 116.521 123.073C116.522 123.215 116.522 123.358 116.522 123.5C116.522 123.568 116.522 123.636 116.523 123.704C116.527 124.144 116.516 124.462 116.217 124.804C116.186 124.83 116.155 124.855 116.123 124.882C116.092 124.908 116.062 124.934 116.03 124.962C115.7 125.189 115.316 125.155 114.933 125.125C114.616 125.049 114.401 124.818 114.22 124.555C114.13 124.368 114.113 124.216 114.111 124.009C114.111 123.948 114.11 123.886 114.11 123.823C114.109 123.756 114.109 123.689 114.109 123.622C114.109 123.553 114.109 123.484 114.108 123.415C114.108 123.27 114.107 123.126 114.108 122.981C114.108 122.797 114.106 122.612 114.105 122.428C114.104 122.285 114.103 122.143 114.103 122C114.103 121.932 114.103 121.864 114.102 121.796C114.098 121.357 114.109 121.038 114.408 120.696C114.439 120.671 114.47 120.645 114.502 120.619C114.533 120.592 114.564 120.566 114.596 120.539C114.937 120.304 115.529 120.277 115.909 120.447Z" fill="#1D405C"/>
<path d="M109.972 120.447C110.248 120.619 110.46 120.875 110.563 121.183C110.575 121.328 110.575 121.328 110.576 121.491C110.577 121.553 110.578 121.615 110.578 121.678C110.578 121.745 110.579 121.812 110.579 121.878C110.579 121.947 110.579 122.016 110.58 122.085C110.58 122.23 110.58 122.375 110.58 122.519C110.58 122.704 110.582 122.888 110.583 123.073C110.584 123.215 110.584 123.358 110.584 123.5C110.584 123.568 110.585 123.636 110.586 123.704C110.59 124.144 110.579 124.462 110.279 124.804C110.248 124.83 110.217 124.855 110.186 124.882C110.155 124.908 110.124 124.934 110.092 124.962C109.762 125.189 109.379 125.155 108.995 125.125C108.678 125.049 108.464 124.818 108.283 124.555C108.192 124.368 108.175 124.216 108.174 124.009C108.173 123.948 108.173 123.886 108.172 123.823C108.172 123.756 108.172 123.689 108.172 123.622C108.171 123.553 108.171 123.484 108.171 123.415C108.17 123.27 108.17 123.126 108.17 122.981C108.17 122.797 108.169 122.612 108.167 122.428C108.166 122.285 108.166 122.143 108.166 122C108.166 121.932 108.165 121.864 108.165 121.796C108.16 121.357 108.171 121.038 108.471 120.696C108.502 120.671 108.533 120.645 108.565 120.619C108.595 120.592 108.626 120.566 108.658 120.539C108.999 120.304 109.592 120.277 109.972 120.447Z" fill="#1D405C"/>
<path d="M104.034 120.447C104.311 120.619 104.522 120.875 104.625 121.183C104.638 121.328 104.638 121.328 104.639 121.491C104.64 121.553 104.64 121.615 104.641 121.678C104.641 121.745 104.641 121.812 104.641 121.878C104.641 121.947 104.642 122.016 104.642 122.085C104.643 122.23 104.643 122.375 104.643 122.519C104.643 122.704 104.644 122.888 104.646 123.073C104.647 123.215 104.647 123.358 104.647 123.5C104.647 123.568 104.647 123.636 104.648 123.704C104.652 124.144 104.641 124.462 104.342 124.804C104.311 124.83 104.28 124.855 104.248 124.882C104.217 124.908 104.187 124.934 104.155 124.962C103.825 125.189 103.441 125.155 103.058 125.125C102.741 125.049 102.526 124.818 102.345 124.555C102.255 124.368 102.238 124.216 102.236 124.009C102.236 123.948 102.235 123.886 102.235 123.823C102.234 123.756 102.234 123.689 102.234 123.622C102.234 123.553 102.234 123.484 102.233 123.415C102.233 123.27 102.232 123.126 102.233 122.981C102.233 122.797 102.231 122.612 102.23 122.428C102.229 122.285 102.228 122.143 102.228 122C102.228 121.932 102.228 121.864 102.227 121.796C102.223 121.357 102.234 121.038 102.533 120.696C102.564 120.671 102.595 120.645 102.627 120.619C102.658 120.592 102.689 120.566 102.721 120.539C103.062 120.304 103.654 120.277 104.034 120.447Z" fill="#1D405C"/>
<path d="M126.5 63H116V70L121.5 73.5L126.5 70V63Z" fill="#FFDD85"/>
</g>
</g>
<defs>
<clipPath id="clip0_995_2607">
<rect width="283" height="250" fill="white"/>
</clipPath>
<clipPath id="clip1_995_2607">
<rect width="76" height="76" fill="white" transform="translate(88 61)"/>
</clipPath>
</defs>
</svg>
