<svg width="72" height="72" viewBox="0 0 72 72" fill="none" xmlns="http://www.w3.org/2000/svg">
<path d="M53.9998 50.25C53.5198 50.25 53.0698 50.1 52.6498 49.8C51.6598 49.05 51.4498 47.64 52.1998 46.65C56.9098 40.38 56.9098 31.62 52.1998 25.35C51.4498 24.36 51.6598 22.95 52.6498 22.2C53.6398 21.45 55.0498 21.66 55.7998 22.65C61.6798 30.51 61.6798 41.49 55.7998 49.35C55.3498 49.95 54.6898 50.25 53.9998 50.25Z" fill="#FF9277"/>
<path d="M59.4901 57.75C59.0101 57.75 58.5601 57.6 58.1401 57.3C57.1501 56.55 56.9401 55.14 57.6901 54.15C65.7001 43.47 65.7001 28.53 57.6901 17.85C56.9401 16.86 57.1501 15.45 58.1401 14.7C59.1301 13.95 60.5401 14.16 61.2901 15.15C70.5001 27.42 70.5001 44.58 61.2901 56.85C60.8701 57.45 60.1801 57.75 59.4901 57.75Z" fill="#FF9277"/>
<path opacity="0.4" d="M47.25 22.23V49.77C47.25 54.93 45.39 58.8 42.06 60.66C40.71 61.41 39.21 61.77 37.65 61.77C35.25 61.77 32.67 60.96 30.03 59.31L21.27 53.82C20.67 53.46 19.98 53.25 19.29 53.25H16.5V18.75H19.29C19.98 18.75 20.67 18.54 21.27 18.18L30.03 12.69C34.41 9.96003 38.7 9.48003 42.06 11.34C45.39 13.2 47.25 17.07 47.25 22.23Z" fill="#FF9277"/>
<path d="M16.5 18.75V53.25H15C7.74 53.25 3.75 49.26 3.75 42V30C3.75 22.74 7.74 18.75 15 18.75H16.5Z" fill="#FF9277"/>
</svg>
