<svg xmlns="http://www.w3.org/2000/svg" width="140" height="98" viewBox="0 0 140 98">
  <path d="m37.311-.145 2.355-.01q3.81-.013 7.623-.013l5.37-.01a6407 6407 0 0 1 11.23-.007c4.757 0 9.514-.014 14.27-.031q5.545-.015 11.09-.013 2.626 0 5.254-.013C126.413-.372 126.413-.372 134 7c6.187 8.303 6.31 18.438 6.3 28.457l.014 3.227q.008 3.36.002 6.719c-.003 3.39.02 6.78.045 10.17.08 27.029.08 27.029-5.424 34.99-11.53 9.567-27.719 7.6-41.796 7.605l-5.507.01q-5.754.009-11.508.007c-4.88 0-9.758.014-14.638.031q-5.682.015-11.366.013-2.695 0-5.391.013C13.776 98.364 13.776 98.364 6 91-.265 82.757-.309 72.068-.266 62.066L-.27 59.04q-.003-3.146.01-6.29c.011-3.175 0-6.35-.012-9.524C-.293 15.168-.293 15.168 6 8 14.312-.312 26.144-.152 37.311-.145" fill="red"/>
  <path d="M56 28c12.375 6.75 12.375 6.75 17.543 9.648l3.31 1.856 3.335 1.871 3.462 1.941L92 48v2q-5.906 3.314-11.812 6.625l-3.334 1.871-3.311 1.856-3 1.682C65.71 64.716 60.854 67.354 56 70z" fill="snow"/>
</svg>
